%TF.GenerationSoftware,Altium Limited,Altium Designer,24.0.1 (36)*%
G04 Layer_Physical_Order=1*
G04 Layer_Color=255*
%FSLAX45Y45*%
%MOMM*%
%TF.SameCoordinates,EF88BD92-104B-4C59-846E-D9FF23BA8C3F*%
%TF.FilePolarity,Positive*%
%TF.FileFunction,Copper,L1,Top,Signal*%
%TF.Part,Single*%
G01*
G75*
%TA.AperFunction,Conductor*%
%ADD10C,0.50000*%
%ADD11C,0.70000*%
%TA.AperFunction,SMDPad,CuDef*%
%ADD12C,1.50000*%
%ADD13R,1.47000X1.17000*%
G04:AMPARAMS|DCode=14|XSize=0.55mm|YSize=1.47mm|CornerRadius=0.06875mm|HoleSize=0mm|Usage=FLASHONLY|Rotation=180.000|XOffset=0mm|YOffset=0mm|HoleType=Round|Shape=RoundedRectangle|*
%AMROUNDEDRECTD14*
21,1,0.55000,1.33250,0,0,180.0*
21,1,0.41250,1.47000,0,0,180.0*
1,1,0.13750,-0.20625,0.66625*
1,1,0.13750,0.20625,0.66625*
1,1,0.13750,0.20625,-0.66625*
1,1,0.13750,-0.20625,-0.66625*
%
%ADD14ROUNDEDRECTD14*%
G04:AMPARAMS|DCode=15|XSize=1.47mm|YSize=0.55mm|CornerRadius=0.06875mm|HoleSize=0mm|Usage=FLASHONLY|Rotation=180.000|XOffset=0mm|YOffset=0mm|HoleType=Round|Shape=RoundedRectangle|*
%AMROUNDEDRECTD15*
21,1,1.47000,0.41250,0,0,180.0*
21,1,1.33250,0.55000,0,0,180.0*
1,1,0.13750,-0.66625,0.20625*
1,1,0.13750,0.66625,0.20625*
1,1,0.13750,0.66625,-0.20625*
1,1,0.13750,-0.66625,-0.20625*
%
%ADD15ROUNDEDRECTD15*%
%ADD16R,1.50000X1.25000*%
%TA.AperFunction,ConnectorPad*%
%ADD17R,0.80000X1.20000*%
%ADD18R,0.76000X1.20000*%
%ADD19R,0.70000X1.20000*%
%TA.AperFunction,SMDPad,CuDef*%
%ADD20R,1.90000X0.60000*%
%ADD21R,1.90000X0.40000*%
%TA.AperFunction,Conductor*%
%ADD22C,1.00000*%
%ADD23C,0.30000*%
%ADD24C,1.50000*%
%ADD25C,0.40000*%
%TA.AperFunction,WasherPad*%
%ADD26C,1.15200*%
%TA.AperFunction,ComponentPad*%
%ADD27C,1.75000*%
%TA.AperFunction,ViaPad*%
%ADD28C,3.00000*%
%TA.AperFunction,ComponentPad*%
%ADD29C,2.00000*%
%ADD30C,1.95000*%
%ADD31O,1.60000X2.20000*%
%ADD32C,4.00000*%
%TA.AperFunction,ViaPad*%
%ADD33C,1.30000*%
G36*
X5887083Y9938283D02*
X5905282Y9930744D01*
X5921661Y9919801D01*
X5935589Y9905872D01*
X5946533Y9889493D01*
X5954071Y9871295D01*
X5957914Y9851975D01*
Y9842126D01*
Y292126D01*
Y267503D01*
X5948307Y219203D01*
X5929461Y173706D01*
X5902102Y132760D01*
X5867280Y97938D01*
X5826334Y70578D01*
X5780837Y51733D01*
X5732537Y42126D01*
X193141D01*
X164161Y47890D01*
X136863Y59197D01*
X112295Y75613D01*
X91402Y96506D01*
X74986Y121074D01*
X63679Y148372D01*
X57914Y177352D01*
Y192126D01*
Y9692126D01*
Y9716748D01*
X67522Y9765048D01*
X86367Y9810545D01*
X113726Y9851491D01*
X148548Y9886313D01*
X189495Y9913673D01*
X234992Y9932518D01*
X283291Y9942126D01*
X5867764D01*
X5887083Y9938283D01*
D02*
G37*
%LPC*%
G36*
X3432000Y9874310D02*
X3404485Y9870687D01*
X3378845Y9860067D01*
X3372832Y9855453D01*
X3432000Y9796284D01*
X3491169Y9855452D01*
X3485154Y9860067D01*
X3459515Y9870687D01*
X3432000Y9874310D01*
D02*
G37*
G36*
X2568000D02*
X2540485Y9870687D01*
X2514845Y9860067D01*
X2508832Y9855453D01*
X2568000Y9796284D01*
X2627169Y9855452D01*
X2621155Y9860067D01*
X2595515Y9870687D01*
X2568000Y9874310D01*
D02*
G37*
G36*
X2166180Y9872900D02*
X2133820D01*
X2102562Y9864525D01*
X2077963Y9850322D01*
X2150000Y9778285D01*
X2222037Y9850322D01*
X2197438Y9864525D01*
X2166180Y9872900D01*
D02*
G37*
G36*
X5477509Y9777400D02*
X5444491D01*
X5412598Y9768854D01*
X5387132Y9754152D01*
X5461000Y9680284D01*
X5534868Y9754152D01*
X5509402Y9768854D01*
X5477509Y9777400D01*
D02*
G37*
G36*
X2250322Y9822038D02*
X2178285Y9750001D01*
X2250322Y9677963D01*
X2264525Y9702563D01*
X2272900Y9733820D01*
Y9766180D01*
X2264525Y9797438D01*
X2250322Y9822038D01*
D02*
G37*
G36*
X2049678D02*
X2035475Y9797438D01*
X2027100Y9766180D01*
Y9733820D01*
X2035475Y9702563D01*
X2049678Y9677963D01*
X2121716Y9750001D01*
X2049678Y9822038D01*
D02*
G37*
G36*
X3344547Y9827168D02*
X3339933Y9821155D01*
X3329313Y9795515D01*
X3325690Y9768000D01*
Y9708000D01*
X3329313Y9680485D01*
X3339933Y9654845D01*
X3344548Y9648831D01*
X3417858Y9722142D01*
X3432000Y9707999D01*
X3446142Y9722142D01*
X3519452Y9648832D01*
X3524066Y9654845D01*
X3534687Y9680485D01*
X3538309Y9708000D01*
Y9768000D01*
X3534687Y9795515D01*
X3524066Y9821155D01*
X3519453Y9827168D01*
X3446142Y9753858D01*
X3432000Y9768000D01*
X3417858Y9753858D01*
X3344547Y9827168D01*
D02*
G37*
G36*
X3432000Y9679715D02*
X3372832Y9620547D01*
X3378845Y9615933D01*
X3404485Y9605313D01*
X3432000Y9601690D01*
X3459515Y9605313D01*
X3485154Y9615933D01*
X3491168Y9620547D01*
X3432000Y9679715D01*
D02*
G37*
G36*
X2480547Y9827168D02*
X2475933Y9821155D01*
X2465313Y9795515D01*
X2461691Y9768000D01*
Y9708000D01*
X2465313Y9680485D01*
X2475933Y9654845D01*
X2492828Y9632828D01*
X2501599Y9626098D01*
X2497288Y9613398D01*
X2248901D01*
X2238990Y9611426D01*
X2230588Y9605813D01*
X2224974Y9597411D01*
X2213448Y9601281D01*
X2197438Y9610525D01*
X2175413Y9616426D01*
Y9629574D01*
X2197438Y9635476D01*
X2222038Y9649679D01*
X2150000Y9721716D01*
X2074085Y9645801D01*
X2072101Y9638398D01*
X1793227D01*
X1663312Y9768312D01*
X1654910Y9773926D01*
X1645000Y9775898D01*
X1440000D01*
X1430090Y9773926D01*
X1421688Y9768312D01*
X1320000Y9666625D01*
X1193312Y9793312D01*
X1184911Y9798926D01*
X1175000Y9800898D01*
X1000000D01*
X990089Y9798926D01*
X981688Y9793312D01*
X856688Y9668312D01*
X851074Y9659911D01*
X849102Y9650000D01*
Y9629607D01*
X836949Y9625920D01*
X825080Y9643684D01*
X793684Y9675080D01*
X756767Y9699747D01*
X715747Y9716738D01*
X672200Y9725400D01*
X627800D01*
X584253Y9716738D01*
X543233Y9699747D01*
X506316Y9675080D01*
X474920Y9643684D01*
X450253Y9606767D01*
X433262Y9565747D01*
X424600Y9522200D01*
Y9477800D01*
X433262Y9434253D01*
X450253Y9393233D01*
X474920Y9356316D01*
X506316Y9324920D01*
X543233Y9300253D01*
X584253Y9283262D01*
X627800Y9274600D01*
X672200D01*
X715747Y9283262D01*
X756767Y9300253D01*
X793684Y9324920D01*
X825080Y9356316D01*
X836949Y9374080D01*
X849102Y9370394D01*
Y8725156D01*
X837369Y8720295D01*
X831322Y8726342D01*
X805578Y8741206D01*
X776864Y8748900D01*
X774700D01*
Y8636001D01*
Y8523100D01*
X776864D01*
X805578Y8530794D01*
X831322Y8545658D01*
X852342Y8566678D01*
X854211Y8569915D01*
X866803Y8571573D01*
X896328Y8542047D01*
X899144Y8540166D01*
X901692Y8537931D01*
X903310Y8537382D01*
X904730Y8536433D01*
X908052Y8535772D01*
X911260Y8534683D01*
X914683Y8531260D01*
X915772Y8528053D01*
X916433Y8524730D01*
X917382Y8523310D01*
X917931Y8521692D01*
X920165Y8519146D01*
X922047Y8516328D01*
X1554102Y7884273D01*
Y6300000D01*
X1556074Y6290090D01*
X1561688Y6281688D01*
X1570089Y6276074D01*
X1580000Y6274103D01*
X1621100D01*
Y6137285D01*
X1690858Y6207042D01*
X1719143Y6178758D01*
X1649384Y6109000D01*
X1790616D01*
X1720858Y6178758D01*
X1749143Y6207042D01*
X1818900Y6137285D01*
Y6274103D01*
X2125000D01*
X2134910Y6276074D01*
X2143312Y6281688D01*
X2162216Y6300592D01*
X2173949Y6295731D01*
Y6273000D01*
X2161100D01*
Y6111500D01*
X2161100Y6102000D01*
X2161100Y6092499D01*
Y5959285D01*
X2230858Y6029043D01*
X2259143Y6000758D01*
X2189384Y5931000D01*
X2330616D01*
X2260858Y6000758D01*
X2289142Y6029043D01*
X2358900Y5959285D01*
Y6091849D01*
X2358901Y6098800D01*
X2369219Y6104549D01*
X2396311D01*
X2410817Y6098541D01*
X2430500Y6095949D01*
X2450183Y6098541D01*
X2468525Y6106138D01*
X2470768Y6107859D01*
X2483468Y6101596D01*
Y6071375D01*
X2485973Y6058782D01*
X2490505Y6052000D01*
X2485973Y6045218D01*
X2483468Y6032624D01*
Y5991375D01*
X2483627Y5990577D01*
X2481611Y5978020D01*
X2481591Y5977898D01*
X2474471Y5976462D01*
X2463873Y5974353D01*
X2448856Y5964319D01*
X2320826Y5836290D01*
X1480001D01*
X1480000Y5836290D01*
X1462286Y5832766D01*
X1447268Y5822732D01*
X1447268Y5822731D01*
X817268Y5192732D01*
X807234Y5177714D01*
X803710Y5160000D01*
X803711Y5159999D01*
Y1080001D01*
X803710Y1080000D01*
X807234Y1062286D01*
X817268Y1047268D01*
X1489268Y375268D01*
X1504286Y365234D01*
X1522000Y361710D01*
X1522001Y361710D01*
X2632360D01*
X2645658Y338678D01*
X2666678Y317657D01*
X2692422Y302794D01*
X2721137Y295100D01*
X2750864D01*
X2779578Y302794D01*
X2805322Y317657D01*
X2826343Y338678D01*
X2841206Y364422D01*
X2848900Y393136D01*
Y422864D01*
X2841206Y451578D01*
X2826343Y477322D01*
X2805322Y498342D01*
X2779578Y513206D01*
X2750864Y520900D01*
X2721137D01*
X2692422Y513206D01*
X2666678Y498342D01*
X2645658Y477322D01*
X2632360Y454289D01*
X1541174D01*
X896290Y1099174D01*
Y5140826D01*
X1499174Y5743711D01*
X2339999D01*
X2340000Y5743710D01*
X2357714Y5747234D01*
X2372732Y5757268D01*
X2471734Y5856271D01*
X2483468Y5851411D01*
Y5831375D01*
X2485973Y5818782D01*
X2493106Y5808106D01*
X2503782Y5800973D01*
X2504597Y5800811D01*
X2508777Y5787030D01*
X1570873Y4849127D01*
X1561944Y4835763D01*
X1558809Y4820000D01*
Y1545999D01*
X1561944Y1530236D01*
X1570873Y1516873D01*
X1992029Y1095717D01*
X1990794Y1093578D01*
X1983100Y1064864D01*
Y1035136D01*
X1990794Y1006422D01*
X2005657Y980678D01*
X2026677Y959657D01*
X2052422Y944794D01*
X2081136Y937100D01*
X2110863D01*
X2139577Y944794D01*
X2165322Y959657D01*
X2186342Y980678D01*
X2201205Y1006422D01*
X2208900Y1035136D01*
Y1064864D01*
X2201205Y1093578D01*
X2186342Y1119322D01*
X2165322Y1140342D01*
X2139577Y1155206D01*
X2110863Y1162900D01*
X2081136D01*
X2052422Y1155206D01*
X2050282Y1153971D01*
X1641192Y1563061D01*
Y4802938D01*
X2606200Y5767947D01*
X2615129Y5781310D01*
X2618265Y5797073D01*
Y5798468D01*
X2649625D01*
X2658194Y5800172D01*
X2660189Y5799070D01*
X2667070Y5792189D01*
X2668172Y5790194D01*
X2666468Y5781625D01*
Y5681931D01*
X2217268Y5232732D01*
X2207234Y5217714D01*
X2203710Y5200000D01*
X2203711Y5199999D01*
Y2862002D01*
X2203710Y2862001D01*
X2207234Y2844287D01*
X2217268Y2829269D01*
X2426786Y2619752D01*
X2418988Y2609589D01*
X2406403Y2616855D01*
X2374509Y2625401D01*
X2341491D01*
X2309598Y2616855D01*
X2281003Y2600346D01*
X2257655Y2576998D01*
X2241146Y2548404D01*
X2237574Y2535074D01*
X2224426D01*
X2220854Y2548404D01*
X2204345Y2576998D01*
X2180997Y2600346D01*
X2152403Y2616855D01*
X2120509Y2625401D01*
X2087491D01*
X2055598Y2616855D01*
X2027003Y2600346D01*
X2003655Y2576998D01*
X1987146Y2548404D01*
X1983574Y2535074D01*
X1970426D01*
X1966854Y2548404D01*
X1950345Y2576998D01*
X1926997Y2600346D01*
X1898403Y2616855D01*
X1866509Y2625401D01*
X1833491D01*
X1801598Y2616855D01*
X1773003Y2600346D01*
X1749655Y2576998D01*
X1733146Y2548404D01*
X1724600Y2516510D01*
Y2483492D01*
X1733146Y2451599D01*
X1749655Y2423004D01*
X1773003Y2399656D01*
X1801598Y2383147D01*
X1833491Y2374601D01*
X1866509D01*
X1898403Y2383147D01*
X1926997Y2399656D01*
X1950345Y2423004D01*
X1966854Y2451599D01*
X1970426Y2464928D01*
X1983574D01*
X1987146Y2451599D01*
X2003655Y2423004D01*
X2027003Y2399656D01*
X2055598Y2383147D01*
X2087491Y2374601D01*
X2120509D01*
X2152403Y2383147D01*
X2180997Y2399656D01*
X2204345Y2423004D01*
X2220854Y2451599D01*
X2224426Y2464928D01*
X2237574D01*
X2241146Y2451599D01*
X2257655Y2423004D01*
X2281003Y2399656D01*
X2309598Y2383147D01*
X2341491Y2374601D01*
X2374509D01*
X2406403Y2383147D01*
X2434997Y2399656D01*
X2458345Y2423004D01*
X2474854Y2451599D01*
X2478426Y2464928D01*
X2491574D01*
X2495146Y2451599D01*
X2511655Y2423004D01*
X2535003Y2399656D01*
X2563598Y2383147D01*
X2565711Y2382581D01*
Y1834001D01*
X2565710Y1834000D01*
X2569234Y1816286D01*
X2579268Y1801268D01*
X2639984Y1740553D01*
X2633100Y1714863D01*
Y1685136D01*
X2640794Y1656422D01*
X2655658Y1630678D01*
X2676678Y1609657D01*
X2702422Y1594794D01*
X2731137Y1587100D01*
X2760864D01*
X2789578Y1594794D01*
X2815322Y1609657D01*
X2836343Y1630678D01*
X2851206Y1656422D01*
X2858900Y1685136D01*
Y1714863D01*
X2851206Y1743578D01*
X2836343Y1769322D01*
X2815322Y1790342D01*
X2789578Y1805206D01*
X2760864Y1812900D01*
X2731137D01*
X2705447Y1806016D01*
X2658290Y1853174D01*
Y2382581D01*
X2660403Y2383147D01*
X2688997Y2399656D01*
X2712345Y2423004D01*
X2728854Y2451599D01*
X2732426Y2464928D01*
X2745574D01*
X2749146Y2451599D01*
X2765655Y2423004D01*
X2789003Y2399656D01*
X2817598Y2383147D01*
X2849491Y2374601D01*
X2882509D01*
X2914403Y2383147D01*
X2942997Y2399656D01*
X2966345Y2423004D01*
X2982854Y2451599D01*
X2986426Y2464928D01*
X2999574D01*
X3003146Y2451599D01*
X3019655Y2423004D01*
X3043003Y2399656D01*
X3071598Y2383147D01*
X3103491Y2374601D01*
X3136509D01*
X3168403Y2383147D01*
X3196997Y2399656D01*
X3220345Y2423004D01*
X3236854Y2451599D01*
X3240426Y2464928D01*
X3253574D01*
X3257146Y2451599D01*
X3273655Y2423004D01*
X3297003Y2399656D01*
X3325598Y2383147D01*
X3357491Y2374601D01*
X3390509D01*
X3422403Y2383147D01*
X3450997Y2399656D01*
X3474345Y2423004D01*
X3490854Y2451599D01*
X3494426Y2464928D01*
X3507574D01*
X3511146Y2451599D01*
X3527655Y2423004D01*
X3551003Y2399656D01*
X3579598Y2383147D01*
X3611491Y2374601D01*
X3644509D01*
X3676403Y2383147D01*
X3704997Y2399656D01*
X3728345Y2423004D01*
X3744854Y2451599D01*
X3748426Y2464928D01*
X3761574D01*
X3765146Y2451599D01*
X3781655Y2423004D01*
X3805003Y2399656D01*
X3833598Y2383147D01*
X3857710Y2376686D01*
X3857711Y1153640D01*
X3834678Y1140342D01*
X3813658Y1119322D01*
X3798794Y1093578D01*
X3791100Y1064864D01*
Y1035136D01*
X3798794Y1006422D01*
X3813658Y980678D01*
X3834678Y959657D01*
X3860422Y944794D01*
X3889136Y937100D01*
X3918864D01*
X3947578Y944794D01*
X3973322Y959657D01*
X3994343Y980678D01*
X4009206Y1006422D01*
X4016900Y1035136D01*
Y1064864D01*
X4009206Y1093578D01*
X3994343Y1119322D01*
X3973322Y1140342D01*
X3950290Y1153640D01*
X3950289Y2394628D01*
X3958997Y2399656D01*
X3982345Y2423004D01*
X3998854Y2451599D01*
X4002426Y2464928D01*
X4015574D01*
X4019146Y2451599D01*
X4035655Y2423004D01*
X4059003Y2399656D01*
X4087598Y2383147D01*
X4119491Y2374601D01*
X4152509D01*
X4184403Y2383147D01*
X4212997Y2399656D01*
X4236345Y2423004D01*
X4252854Y2451599D01*
X4261400Y2483492D01*
Y2516510D01*
X4252854Y2548404D01*
X4236345Y2576998D01*
X4212997Y2600346D01*
X4184403Y2616855D01*
X4152509Y2625401D01*
X4119491D01*
X4087598Y2616855D01*
X4059003Y2600346D01*
X4035655Y2576998D01*
X4019146Y2548404D01*
X4015574Y2535074D01*
X4002426D01*
X3998854Y2548404D01*
X3982345Y2576998D01*
X3958997Y2600346D01*
X3950289Y2605374D01*
Y2995999D01*
X3950289Y2996000D01*
X3946766Y3013715D01*
X3936731Y3028732D01*
X2546290Y4419174D01*
Y5180826D01*
X2814009Y5448546D01*
X2826709Y5443285D01*
Y5334962D01*
X2738401Y5246655D01*
X2729472Y5233291D01*
X2726337Y5217528D01*
Y5047601D01*
X2711247Y5043558D01*
X2688353Y5030340D01*
X2669660Y5011647D01*
X2656442Y4988753D01*
X2649600Y4963218D01*
Y4936782D01*
X2656442Y4911247D01*
X2669660Y4888353D01*
X2688353Y4869660D01*
X2711247Y4856442D01*
X2736782Y4849600D01*
X2763218D01*
X2788753Y4856442D01*
X2811647Y4869660D01*
X2830340Y4888353D01*
X2843558Y4911247D01*
X2850400Y4936782D01*
Y4963218D01*
X2843558Y4988753D01*
X2830340Y5011647D01*
X2811647Y5030340D01*
X2808720Y5032030D01*
Y5200466D01*
X2897027Y5288773D01*
X2905956Y5302137D01*
X2906108Y5302903D01*
X2918808Y5301652D01*
Y5001980D01*
X2917480Y5001213D01*
X2898787Y4982520D01*
X2885569Y4959626D01*
X2878727Y4934091D01*
Y4907655D01*
X2885569Y4882120D01*
X2898787Y4859226D01*
X2917480Y4840533D01*
X2940374Y4827315D01*
X2965909Y4820473D01*
X2992345D01*
X3017880Y4827315D01*
X3040774Y4840533D01*
X3059467Y4859226D01*
X3072684Y4882120D01*
X3079526Y4907655D01*
Y4934091D01*
X3072684Y4959626D01*
X3059467Y4982520D01*
X3040774Y5001213D01*
X3017880Y5014431D01*
X3001191Y5018903D01*
Y5073231D01*
X3001977Y5073852D01*
X3013891Y5077855D01*
X3370873Y4720873D01*
X3384237Y4711944D01*
X3400000Y4708808D01*
X4700000D01*
X4715763Y4711944D01*
X4729126Y4720873D01*
X5236127Y5227873D01*
X5245056Y5241237D01*
X5248191Y5257000D01*
Y8403155D01*
X5250578Y8403794D01*
X5276322Y8418658D01*
X5297342Y8439678D01*
X5312206Y8465422D01*
X5319900Y8494136D01*
Y8523864D01*
X5312206Y8552578D01*
X5297342Y8578322D01*
X5276322Y8599342D01*
X5250578Y8614206D01*
X5221864Y8621900D01*
X5192136D01*
X5163422Y8614206D01*
X5137678Y8599342D01*
X5116658Y8578322D01*
X5101794Y8552578D01*
X5094100Y8523864D01*
Y8494136D01*
X5101794Y8465422D01*
X5116658Y8439678D01*
X5137678Y8418658D01*
X5163422Y8403794D01*
X5165809Y8403155D01*
Y5274062D01*
X4682938Y4791191D01*
X3417062D01*
X3081191Y5127062D01*
Y5315150D01*
X3093891Y5320411D01*
X3113436Y5300867D01*
X3106442Y5288753D01*
X3099600Y5263218D01*
Y5236782D01*
X3106442Y5211247D01*
X3119660Y5188353D01*
X3138353Y5169660D01*
X3161247Y5156442D01*
X3186782Y5149600D01*
X3213218D01*
X3238753Y5156442D01*
X3261647Y5169660D01*
X3280340Y5188353D01*
X3293558Y5211247D01*
X3300400Y5236782D01*
Y5263218D01*
X3293558Y5288753D01*
X3280340Y5311647D01*
X3261647Y5330340D01*
X3238753Y5343558D01*
X3213218Y5350400D01*
X3194829D01*
X3166290Y5378940D01*
Y5450286D01*
X3178990Y5455547D01*
X3354190Y5280347D01*
X3349600Y5263218D01*
Y5236782D01*
X3356442Y5211247D01*
X3369660Y5188353D01*
X3388353Y5169660D01*
X3411247Y5156442D01*
X3436782Y5149600D01*
X3463218D01*
X3488753Y5156442D01*
X3511647Y5169660D01*
X3530340Y5188353D01*
X3543558Y5211247D01*
X3550400Y5236782D01*
Y5263218D01*
X3543558Y5288753D01*
X3530340Y5311647D01*
X3511647Y5330340D01*
X3488753Y5343558D01*
X3463218Y5350400D01*
X3436782D01*
X3419653Y5345810D01*
X3246290Y5519174D01*
Y5605121D01*
X3258990Y5615544D01*
X3259375Y5615467D01*
X3269069D01*
X3629963Y5254573D01*
X3629600Y5253218D01*
Y5226782D01*
X3636442Y5201247D01*
X3649660Y5178353D01*
X3668353Y5159660D01*
X3691247Y5146442D01*
X3716782Y5139600D01*
X3743218D01*
X3768753Y5146442D01*
X3791647Y5159660D01*
X3810340Y5178353D01*
X3823558Y5201247D01*
X3830400Y5226782D01*
Y5253218D01*
X3823558Y5278753D01*
X3810340Y5301647D01*
X3791647Y5320340D01*
X3768753Y5333558D01*
X3743218Y5340400D01*
X3716782D01*
X3691247Y5333558D01*
X3685325Y5330138D01*
X3333532Y5681931D01*
Y5781624D01*
X3331828Y5790193D01*
X3332930Y5792189D01*
X3339811Y5799070D01*
X3341806Y5800172D01*
X3350375Y5798467D01*
X3414113D01*
Y5734500D01*
X3418024Y5714835D01*
X3429164Y5698164D01*
X3563664Y5563664D01*
X3580335Y5552524D01*
X3600000Y5548613D01*
X4600000D01*
X4619665Y5552524D01*
X4636336Y5563664D01*
X5036336Y5963664D01*
X5047476Y5980335D01*
X5051387Y6000000D01*
Y9564410D01*
X5049955Y9571612D01*
X5053345Y9575003D01*
X5069854Y9603598D01*
X5078400Y9635491D01*
Y9668509D01*
X5069854Y9700402D01*
X5053345Y9728997D01*
X5029997Y9752345D01*
X5001402Y9768854D01*
X4969509Y9777400D01*
X4936491D01*
X4904598Y9768854D01*
X4876003Y9752345D01*
X4852655Y9728997D01*
X4836146Y9700402D01*
X4827600Y9668509D01*
Y9635491D01*
X4836146Y9603598D01*
X4852655Y9575003D01*
X4876003Y9551655D01*
X4904598Y9535146D01*
X4936491Y9526600D01*
X4948613D01*
Y6021285D01*
X4578715Y5651387D01*
X3621285D01*
X3516887Y5755785D01*
Y5849499D01*
X3516532Y5851284D01*
Y5872624D01*
X3514027Y5885217D01*
X3509495Y5891999D01*
X3514027Y5898782D01*
X3516532Y5911375D01*
Y5952624D01*
X3514027Y5965217D01*
X3509496Y5971999D01*
X3514027Y5978782D01*
X3516532Y5991375D01*
Y6032624D01*
X3514027Y6045217D01*
X3515072Y6047749D01*
X3565699Y6057962D01*
X3571354Y6054184D01*
X3594920Y6049496D01*
X3642120D01*
X3651100Y6040516D01*
X3651100Y6020000D01*
X3651100Y6010500D01*
Y5877285D01*
X3720858Y5947042D01*
X3749142Y5918758D01*
X3679384Y5849000D01*
X3820615D01*
X3750858Y5918758D01*
X3779142Y5947042D01*
X3848900Y5877284D01*
Y6010500D01*
X3848900Y6016800D01*
Y6022069D01*
X3857881Y6031049D01*
X3902120D01*
X3911100Y6022069D01*
X3911100Y6010500D01*
Y5877285D01*
X3980858Y5947042D01*
X4009142Y5918758D01*
X3939384Y5849000D01*
X4080615D01*
X4010858Y5918758D01*
X4039142Y5947042D01*
X4108900Y5877284D01*
Y6010500D01*
X4108900Y6020000D01*
X4108900Y6029500D01*
Y6083448D01*
X4883776Y6858324D01*
X4895862Y6874074D01*
X4899009Y6881672D01*
X4903459Y6892416D01*
X4906051Y6912100D01*
Y7618991D01*
X4903459Y7638674D01*
X4896051Y7656561D01*
Y8250924D01*
X4904239Y8265107D01*
X4910400Y8288098D01*
Y8311901D01*
X4904239Y8334893D01*
X4892338Y8355507D01*
X4875507Y8372338D01*
X4854893Y8384239D01*
X4831901Y8390400D01*
X4808099D01*
X4785107Y8384239D01*
X4764493Y8372338D01*
X4747662Y8355507D01*
X4735761Y8334893D01*
X4729600Y8311901D01*
Y8288098D01*
X4735761Y8265107D01*
X4743949Y8250924D01*
Y7628991D01*
X4746541Y7609307D01*
X4753949Y7591421D01*
Y6943601D01*
X4001348Y6191000D01*
X3911100D01*
Y6183150D01*
X3848900D01*
Y6191000D01*
X3732448D01*
X3726500Y6192183D01*
X3720552Y6191000D01*
X3651101D01*
X3651100Y6191000D01*
Y6191000D01*
X3640667Y6196431D01*
X3618504Y6218593D01*
X3598525Y6231943D01*
X3592469Y6233148D01*
X3565686Y6263852D01*
X3563248Y6265733D01*
X3560420Y6269419D01*
X3549096Y6278108D01*
X3553407Y6290808D01*
X3592000D01*
X3607763Y6293944D01*
X3621127Y6302873D01*
X3707853Y6389600D01*
X3850400D01*
Y6436308D01*
X3907500D01*
X3923263Y6439444D01*
X3936627Y6448373D01*
X3987853Y6499600D01*
X4170400D01*
Y6604600D01*
Y6689600D01*
Y6800400D01*
X3987853D01*
X3936627Y6851627D01*
X3923263Y6860556D01*
X3907500Y6863691D01*
X3850400D01*
Y6910400D01*
X3649600D01*
Y6792854D01*
X3387874Y6531127D01*
X3378944Y6517763D01*
X3375809Y6502000D01*
Y6465532D01*
X3350375D01*
X3341807Y6463827D01*
X3339811Y6464929D01*
X3332930Y6471811D01*
X3331828Y6473806D01*
X3333533Y6482375D01*
Y6549713D01*
X3333888Y6551500D01*
Y6661216D01*
X3671285Y6998613D01*
X4125000D01*
X4144665Y7002524D01*
X4161336Y7013664D01*
X4686336Y7538664D01*
X4697476Y7555335D01*
X4701387Y7575000D01*
Y9447000D01*
X4697476Y9466665D01*
X4686336Y9483336D01*
X4562746Y9606926D01*
X4570400Y9635491D01*
Y9668509D01*
X4561854Y9700402D01*
X4545345Y9728997D01*
X4521997Y9752345D01*
X4493402Y9768854D01*
X4461509Y9777400D01*
X4428491D01*
X4396598Y9768854D01*
X4368003Y9752345D01*
X4344655Y9728997D01*
X4328146Y9700402D01*
X4319600Y9668509D01*
Y9635491D01*
X4328146Y9603598D01*
X4344655Y9575003D01*
X4368003Y9551655D01*
X4396598Y9535146D01*
X4428491Y9526600D01*
X4461509D01*
X4490074Y9534254D01*
X4598613Y9425715D01*
Y7596285D01*
X4103715Y7101387D01*
X3650000D01*
X3640039Y7099406D01*
X3633783Y7111110D01*
X3846285Y7323613D01*
X4125000D01*
X4144665Y7327524D01*
X4161336Y7338664D01*
X4436336Y7613664D01*
X4447476Y7630335D01*
X4451387Y7650000D01*
Y9189000D01*
X4447476Y9208665D01*
X4436336Y9225336D01*
X4054746Y9606926D01*
X4062400Y9635491D01*
Y9668509D01*
X4053854Y9700402D01*
X4037345Y9728997D01*
X4013997Y9752345D01*
X3985402Y9768854D01*
X3953509Y9777400D01*
X3920491D01*
X3888598Y9768854D01*
X3860003Y9752345D01*
X3836655Y9728997D01*
X3820146Y9700402D01*
X3811600Y9668509D01*
Y9635491D01*
X3820146Y9603598D01*
X3836655Y9575003D01*
X3860003Y9551655D01*
X3888598Y9535146D01*
X3920491Y9526600D01*
X3953509D01*
X3982074Y9534254D01*
X4348613Y9167715D01*
Y7671285D01*
X4103715Y7426387D01*
X3825000D01*
X3805335Y7422476D01*
X3788664Y7411336D01*
X3677017Y7299690D01*
X3673802Y7301167D01*
X3666543Y7307176D01*
X3669192Y7320489D01*
Y7781215D01*
X3676403Y7783147D01*
X3704997Y7799656D01*
X3728345Y7823004D01*
X3744854Y7851599D01*
X3748426Y7864928D01*
X3761574D01*
X3765146Y7851599D01*
X3781655Y7823004D01*
X3805003Y7799656D01*
X3833598Y7783147D01*
X3865491Y7774601D01*
X3898509D01*
X3930403Y7783147D01*
X3958997Y7799656D01*
X3982345Y7823004D01*
X3998854Y7851599D01*
X4002426Y7864928D01*
X4015574D01*
X4019146Y7851599D01*
X4033849Y7826133D01*
X4107716Y7900000D01*
X4033848Y7973868D01*
X4019146Y7948404D01*
X4015574Y7935074D01*
X4002426D01*
X3998854Y7948404D01*
X3983266Y7975403D01*
Y8297998D01*
X3983267Y8298000D01*
X3979816Y8324210D01*
X3969699Y8348633D01*
X3953606Y8369606D01*
X3953605Y8369607D01*
X3951606Y8371606D01*
X3930633Y8387699D01*
X3906210Y8397816D01*
X3880000Y8401266D01*
X3853791Y8397816D01*
X3829367Y8387699D01*
X3808394Y8371606D01*
X3792301Y8350633D01*
X3782184Y8326209D01*
X3778734Y8300000D01*
X3780734Y8284808D01*
Y7975403D01*
X3765146Y7948404D01*
X3761574Y7935074D01*
X3748426D01*
X3744854Y7948404D01*
X3728345Y7976999D01*
X3704997Y8000346D01*
X3676403Y8016855D01*
X3644509Y8025401D01*
X3611491D01*
X3579598Y8016855D01*
X3551003Y8000346D01*
X3527655Y7976999D01*
X3511146Y7948404D01*
X3507574Y7935074D01*
X3494426D01*
X3490854Y7948404D01*
X3474345Y7976999D01*
X3450997Y8000346D01*
X3422403Y8016855D01*
X3390509Y8025401D01*
X3357491D01*
X3325598Y8016855D01*
X3297003Y8000346D01*
X3273655Y7976999D01*
X3257146Y7948404D01*
X3253574Y7935074D01*
X3240426D01*
X3236854Y7948404D01*
X3220345Y7976999D01*
X3196997Y8000346D01*
X3168403Y8016855D01*
X3136509Y8025401D01*
X3103491D01*
X3071598Y8016855D01*
X3043003Y8000346D01*
X3019655Y7976999D01*
X3003146Y7948404D01*
X2999574Y7935074D01*
X2986426D01*
X2982854Y7948404D01*
X2966345Y7976999D01*
X2942997Y8000346D01*
X2914403Y8016855D01*
X2882509Y8025401D01*
X2849491D01*
X2817598Y8016855D01*
X2789003Y8000346D01*
X2765655Y7976999D01*
X2749146Y7948404D01*
X2745574Y7935074D01*
X2732426D01*
X2728854Y7948404D01*
X2712345Y7976999D01*
X2688997Y8000346D01*
X2660403Y8016855D01*
X2653192Y8018788D01*
Y8069938D01*
X2922132Y8338878D01*
X2938099Y8334600D01*
X2961901D01*
X2984893Y8340761D01*
X3005507Y8352662D01*
X3022338Y8369493D01*
X3034239Y8390107D01*
X3040400Y8413098D01*
Y8436901D01*
X3034239Y8459893D01*
X3022338Y8480507D01*
X3006736Y8496108D01*
X3008365Y8508003D01*
X3008580Y8508808D01*
X3099600D01*
Y8439600D01*
X3300400D01*
Y8508808D01*
X4144769D01*
X4145761Y8505107D01*
X4157662Y8484493D01*
X4174493Y8467662D01*
X4195107Y8455761D01*
X4218098Y8449600D01*
X4241901D01*
X4264893Y8455761D01*
X4285507Y8467662D01*
X4302338Y8484493D01*
X4314239Y8505107D01*
X4320400Y8528099D01*
Y8551901D01*
X4314239Y8574893D01*
X4302338Y8595507D01*
X4285507Y8612338D01*
X4264893Y8624239D01*
X4241901Y8630400D01*
X4218098D01*
X4195107Y8624239D01*
X4174493Y8612338D01*
X4157662Y8595507D01*
X4155171Y8591191D01*
X3300400D01*
Y8615400D01*
X3099600D01*
Y8591191D01*
X2722787D01*
X2720854Y8598402D01*
X2704345Y8626997D01*
X2680997Y8650345D01*
X2652403Y8666854D01*
X2639073Y8670426D01*
Y8683574D01*
X2652403Y8687146D01*
X2680997Y8703655D01*
X2704345Y8727003D01*
X2720854Y8755597D01*
X2729400Y8787491D01*
Y8791300D01*
X2604000D01*
Y8804000D01*
X2591300D01*
Y8929400D01*
X2587491D01*
X2555598Y8920854D01*
X2527003Y8904345D01*
X2503655Y8880997D01*
X2487146Y8852402D01*
X2483574Y8839073D01*
X2470426D01*
X2466854Y8852402D01*
X2450345Y8880997D01*
X2426997Y8904345D01*
X2398403Y8920854D01*
X2391192Y8922786D01*
Y8942938D01*
X2427062Y8978809D01*
X2842938D01*
X2908809Y8912938D01*
Y8780603D01*
X2894493Y8772338D01*
X2877662Y8755507D01*
X2865761Y8734893D01*
X2859600Y8711902D01*
Y8688099D01*
X2865761Y8665107D01*
X2877662Y8644493D01*
X2894493Y8627662D01*
X2915107Y8615761D01*
X2938099Y8609600D01*
X2961901D01*
X2984893Y8615761D01*
X3005507Y8627662D01*
X3022338Y8644493D01*
X3034239Y8665107D01*
X3040400Y8688099D01*
Y8711902D01*
X3034239Y8734893D01*
X3022338Y8755507D01*
X3005507Y8772338D01*
X2991191Y8780603D01*
Y8859521D01*
X3003891Y8863373D01*
X3006688Y8859188D01*
X3069554Y8796321D01*
X3077956Y8790707D01*
X3087867Y8788736D01*
X3099600Y8784600D01*
X3103736Y8772867D01*
X3105707Y8762957D01*
X3111321Y8754555D01*
X3156688Y8709188D01*
X3156765Y8709137D01*
X3156816Y8709060D01*
X3160968Y8706328D01*
X3165090Y8703574D01*
X3165180Y8703556D01*
X3165257Y8703505D01*
X3170151Y8702567D01*
X3175000Y8701603D01*
X3175090Y8701621D01*
X3175181Y8701603D01*
X3890181Y8706603D01*
X3893021Y8707189D01*
X3895917Y8707288D01*
X3897921Y8708199D01*
X3900078Y8708644D01*
X3902477Y8710271D01*
X3905115Y8711471D01*
X3985115Y8768971D01*
X3986556Y8770514D01*
X3988313Y8771688D01*
X3989972Y8774172D01*
X3992012Y8776356D01*
X3992753Y8778334D01*
X3993926Y8780089D01*
X3994509Y8783020D01*
X3995558Y8785818D01*
X3995486Y8787929D01*
X3995898Y8790000D01*
Y8927500D01*
X3995478Y8929609D01*
X3995545Y8931758D01*
X3994502Y8934518D01*
X3993926Y8937411D01*
X3992732Y8939198D01*
X3991972Y8941209D01*
X3989952Y8943360D01*
X3988313Y8945813D01*
X3986525Y8947007D01*
X3985053Y8948574D01*
X3915053Y8998574D01*
X3912365Y8999787D01*
X3909911Y9001426D01*
X3907802Y9001846D01*
X3905843Y9002730D01*
X3902893Y9002822D01*
X3900000Y9003398D01*
X3360727D01*
X3168313Y9195812D01*
X3159911Y9201426D01*
X3150000Y9203398D01*
X2200000D01*
X2190089Y9201426D01*
X2181688Y9195812D01*
X1961773Y8975897D01*
X1430727D01*
X1350897Y9055727D01*
Y9370394D01*
X1363051Y9374081D01*
X1374921Y9356316D01*
X1406316Y9324920D01*
X1443233Y9300253D01*
X1484254Y9283262D01*
X1527800Y9274600D01*
X1572200D01*
X1578124Y9275779D01*
X1588325Y9268213D01*
X1588399Y9267461D01*
X1589504Y9263820D01*
X1590246Y9260089D01*
X1590959Y9259021D01*
X1591332Y9257792D01*
X1593747Y9254850D01*
X1595860Y9251688D01*
X1596928Y9250974D01*
X1597743Y9249981D01*
X1601098Y9248187D01*
X1604261Y9246074D01*
X1605522Y9245823D01*
X1606655Y9245217D01*
X1610441Y9244845D01*
X1614172Y9244102D01*
X1687500D01*
X1697411Y9246074D01*
X1705812Y9251688D01*
X1809703Y9355578D01*
X2078028D01*
X2079703Y9355911D01*
X2081408Y9355799D01*
X2084616Y9356888D01*
X2087938Y9357549D01*
X2089359Y9358498D01*
X2090977Y9359048D01*
X2093524Y9361281D01*
X2096340Y9363163D01*
X2097289Y9364583D01*
X2098574Y9365710D01*
X2100072Y9368749D01*
X2101954Y9371565D01*
X2113178Y9378631D01*
X2133820Y9373100D01*
X2166180D01*
X2186822Y9378631D01*
X2198046Y9371565D01*
X2199928Y9368749D01*
X2201426Y9365710D01*
X2202711Y9364583D01*
X2203660Y9363163D01*
X2206476Y9361281D01*
X2209024Y9359048D01*
X2210642Y9358498D01*
X2212062Y9357549D01*
X2215384Y9356889D01*
X2218592Y9355799D01*
X2220297Y9355911D01*
X2221972Y9355578D01*
X2383975D01*
X2393886Y9357549D01*
X2402288Y9363163D01*
X2452179Y9413055D01*
X2464208Y9407123D01*
X2461691Y9388000D01*
Y9328000D01*
X2465313Y9300485D01*
X2475933Y9274845D01*
X2480547Y9268832D01*
X2553857Y9342142D01*
X2568000Y9328000D01*
X2582142Y9342142D01*
X2659684Y9264600D01*
X3340315D01*
X3417857Y9342142D01*
X3431999Y9328000D01*
X3446142Y9342142D01*
X3519452Y9268832D01*
X3524066Y9274845D01*
X3534687Y9300485D01*
X3538309Y9328000D01*
Y9388000D01*
X3534687Y9415515D01*
X3524066Y9441155D01*
X3519452Y9447169D01*
X3446142Y9373858D01*
X3431999Y9388001D01*
X3417857Y9373858D01*
X3344547Y9447168D01*
X3339933Y9441155D01*
X3337549Y9435400D01*
X3237812D01*
X3229810Y9445262D01*
X3231256Y9452131D01*
X3248312Y9469188D01*
X3253926Y9477589D01*
X3255897Y9487500D01*
Y9560000D01*
X3253926Y9569911D01*
X3248312Y9578312D01*
X3220812Y9605812D01*
X3212410Y9611426D01*
X3202500Y9613398D01*
X2638712D01*
X2634401Y9626098D01*
X2643172Y9632828D01*
X2660067Y9654845D01*
X2670687Y9680485D01*
X2674309Y9708000D01*
Y9768000D01*
X2670687Y9795515D01*
X2660067Y9821155D01*
X2655453Y9827168D01*
X2582143Y9753858D01*
X2568000Y9768000D01*
X2553858Y9753858D01*
X2480547Y9827168D01*
D02*
G37*
G36*
X5563152Y9725868D02*
X5489284Y9652000D01*
X5563152Y9578132D01*
X5577854Y9603598D01*
X5586400Y9635491D01*
Y9668509D01*
X5577854Y9700402D01*
X5563152Y9725868D01*
D02*
G37*
G36*
X5358848Y9725868D02*
X5344146Y9700402D01*
X5335600Y9668509D01*
Y9635491D01*
X5344146Y9603598D01*
X5358848Y9578132D01*
X5432716Y9652000D01*
X5358848Y9725868D01*
D02*
G37*
G36*
X5461000Y9623716D02*
X5387132Y9549848D01*
X5412598Y9535146D01*
X5444491Y9526600D01*
X5477509D01*
X5509402Y9535146D01*
X5534868Y9549848D01*
X5461000Y9623716D01*
D02*
G37*
G36*
X216509Y9725400D02*
X183491D01*
X151598Y9716854D01*
X123003Y9700345D01*
X99655Y9676997D01*
X83146Y9648403D01*
X74600Y9616509D01*
Y9583491D01*
X83146Y9551598D01*
X99655Y9523003D01*
X123003Y9499655D01*
X151598Y9483146D01*
X183491Y9474600D01*
X216509D01*
X248403Y9483146D01*
X276997Y9499655D01*
X300345Y9523003D01*
X316854Y9551598D01*
X325400Y9583491D01*
Y9616509D01*
X316854Y9648403D01*
X300345Y9676997D01*
X276997Y9700345D01*
X248403Y9716854D01*
X216509Y9725400D01*
D02*
G37*
G36*
X3432000Y9494310D02*
X3404485Y9490687D01*
X3378845Y9480067D01*
X3372832Y9475453D01*
X3431999Y9416285D01*
X3491168Y9475453D01*
X3485155Y9480067D01*
X3459515Y9490687D01*
X3432000Y9494310D01*
D02*
G37*
G36*
X3431999Y9299716D02*
X3372831Y9240547D01*
X3378845Y9235933D01*
X3404485Y9225313D01*
X3432000Y9221690D01*
X3459515Y9225313D01*
X3485155Y9235933D01*
X3491168Y9240547D01*
X3431999Y9299716D01*
D02*
G37*
G36*
X2568000D02*
X2508832Y9240547D01*
X2514845Y9235933D01*
X2540485Y9225313D01*
X2568000Y9221690D01*
X2595515Y9225313D01*
X2621155Y9235933D01*
X2627168Y9240547D01*
X2568000Y9299716D01*
D02*
G37*
G36*
X5221864Y9129900D02*
X5192136D01*
X5163422Y9122206D01*
X5142284Y9110002D01*
X5207000Y9045285D01*
X5271717Y9110001D01*
X5250578Y9122206D01*
X5221864Y9129900D01*
D02*
G37*
G36*
X5717275Y9175400D02*
X5712700D01*
Y9012700D01*
X5875400D01*
Y9017275D01*
X5868659Y9051162D01*
X5855437Y9083083D01*
X5836242Y9111811D01*
X5811811Y9136242D01*
X5783083Y9155437D01*
X5751162Y9168659D01*
X5717275Y9175400D01*
D02*
G37*
G36*
X5687300D02*
X5682725D01*
X5648838Y9168659D01*
X5616917Y9155437D01*
X5588189Y9136242D01*
X5563758Y9111811D01*
X5544563Y9083083D01*
X5531341Y9051162D01*
X5524600Y9017275D01*
Y9012700D01*
X5687300D01*
Y9175400D01*
D02*
G37*
G36*
X317275D02*
X312700D01*
Y9012700D01*
X475400D01*
Y9017275D01*
X468659Y9051162D01*
X455437Y9083083D01*
X436242Y9111811D01*
X411811Y9136242D01*
X383083Y9155437D01*
X351162Y9168659D01*
X317275Y9175400D01*
D02*
G37*
G36*
X287300D02*
X282725D01*
X248838Y9168659D01*
X216917Y9155437D01*
X188189Y9136242D01*
X163758Y9111811D01*
X144563Y9083083D01*
X131341Y9051162D01*
X124600Y9017275D01*
Y9012700D01*
X287300D01*
Y9175400D01*
D02*
G37*
G36*
X5300001Y9081717D02*
X5235285Y9017001D01*
X5300002Y8952284D01*
X5312206Y8973422D01*
X5319900Y9002136D01*
Y9031864D01*
X5312206Y9060578D01*
X5300001Y9081717D01*
D02*
G37*
G36*
X5113999Y9081717D02*
X5101794Y9060578D01*
X5094100Y9031864D01*
Y9002136D01*
X5101794Y8973422D01*
X5113999Y8952283D01*
X5178716Y9017001D01*
X5113999Y9081717D01*
D02*
G37*
G36*
X5207000Y8988716D02*
X5142283Y8923999D01*
X5163422Y8911794D01*
X5192136Y8904100D01*
X5221864D01*
X5250578Y8911794D01*
X5271717Y8923999D01*
X5207000Y8988716D01*
D02*
G37*
G36*
X5875400Y8987300D02*
X5712700D01*
Y8824600D01*
X5717275D01*
X5751162Y8831341D01*
X5783083Y8844563D01*
X5811811Y8863758D01*
X5836242Y8888189D01*
X5855437Y8916917D01*
X5868659Y8948838D01*
X5875400Y8982725D01*
Y8987300D01*
D02*
G37*
G36*
X5687300D02*
X5524600D01*
Y8982725D01*
X5531341Y8948838D01*
X5544563Y8916917D01*
X5563758Y8888189D01*
X5588189Y8863758D01*
X5616917Y8844563D01*
X5648838Y8831341D01*
X5682725Y8824600D01*
X5687300D01*
Y8987300D01*
D02*
G37*
G36*
X475400D02*
X312700D01*
Y8824600D01*
X317275D01*
X351162Y8831341D01*
X383083Y8844563D01*
X411811Y8863758D01*
X436242Y8888189D01*
X455437Y8916917D01*
X468659Y8948838D01*
X475400Y8982725D01*
Y8987300D01*
D02*
G37*
G36*
X287300D02*
X124600D01*
Y8982725D01*
X131341Y8948838D01*
X144563Y8916917D01*
X163758Y8888189D01*
X188189Y8863758D01*
X216917Y8844563D01*
X248838Y8831341D01*
X282725Y8824600D01*
X287300D01*
Y8987300D01*
D02*
G37*
G36*
X2620509Y8929400D02*
X2616700D01*
Y8816700D01*
X2729400D01*
Y8820509D01*
X2720854Y8852402D01*
X2704345Y8880997D01*
X2680997Y8904345D01*
X2652403Y8920854D01*
X2620509Y8929400D01*
D02*
G37*
G36*
X749300Y8748900D02*
X747136D01*
X718422Y8741206D01*
X692678Y8726342D01*
X671658Y8705322D01*
X656794Y8679578D01*
X649100Y8650864D01*
Y8648701D01*
X749300D01*
Y8748900D01*
D02*
G37*
G36*
Y8623301D02*
X649100D01*
Y8621136D01*
X656794Y8592422D01*
X671658Y8566678D01*
X692678Y8545658D01*
X718422Y8530794D01*
X747136Y8523100D01*
X749300D01*
Y8623301D01*
D02*
G37*
G36*
X4152509Y8025401D02*
X4119491D01*
X4087598Y8016855D01*
X4062132Y8002153D01*
X4136001Y7928285D01*
X4209869Y8002153D01*
X4184403Y8016855D01*
X4152509Y8025401D01*
D02*
G37*
G36*
X4238153Y7973868D02*
X4164285Y7900000D01*
X4238152Y7826133D01*
X4252854Y7851599D01*
X4261400Y7883492D01*
Y7916510D01*
X4252854Y7948404D01*
X4238153Y7973868D01*
D02*
G37*
G36*
X4136001Y7871716D02*
X4062134Y7797849D01*
X4087598Y7783147D01*
X4119491Y7774601D01*
X4152509D01*
X4184403Y7783147D01*
X4209867Y7797849D01*
X4136001Y7871716D01*
D02*
G37*
G36*
X5717275Y5875400D02*
X5712700D01*
Y5712700D01*
X5875400D01*
Y5717275D01*
X5868659Y5751162D01*
X5855437Y5783083D01*
X5836242Y5811811D01*
X5811811Y5836242D01*
X5783083Y5855437D01*
X5751162Y5868659D01*
X5717275Y5875400D01*
D02*
G37*
G36*
X5687300D02*
X5682725D01*
X5648838Y5868659D01*
X5616917Y5855437D01*
X5588189Y5836242D01*
X5563758Y5811811D01*
X5544563Y5783083D01*
X5531341Y5751162D01*
X5524600Y5717275D01*
Y5712700D01*
X5687300D01*
Y5875400D01*
D02*
G37*
G36*
X317275D02*
X312700D01*
Y5712700D01*
X475400D01*
Y5717275D01*
X468659Y5751162D01*
X455437Y5783083D01*
X436242Y5811811D01*
X411811Y5836242D01*
X383083Y5855437D01*
X351162Y5868659D01*
X317275Y5875400D01*
D02*
G37*
G36*
X287300D02*
X282725D01*
X248838Y5868659D01*
X216917Y5855437D01*
X188189Y5836242D01*
X163758Y5811811D01*
X144563Y5783083D01*
X131341Y5751162D01*
X124600Y5717275D01*
Y5712700D01*
X287300D01*
Y5875400D01*
D02*
G37*
G36*
X5875400Y5687300D02*
X5712700D01*
Y5524600D01*
X5717275D01*
X5751162Y5531341D01*
X5783083Y5544563D01*
X5811811Y5563758D01*
X5836242Y5588189D01*
X5855437Y5616917D01*
X5868659Y5648838D01*
X5875400Y5682725D01*
Y5687300D01*
D02*
G37*
G36*
X5687300D02*
X5524600D01*
Y5682725D01*
X5531341Y5648838D01*
X5544563Y5616917D01*
X5563758Y5588189D01*
X5588189Y5563758D01*
X5616917Y5544563D01*
X5648838Y5531341D01*
X5682725Y5524600D01*
X5687300D01*
Y5687300D01*
D02*
G37*
G36*
X475400D02*
X312700D01*
Y5524600D01*
X317275D01*
X351162Y5531341D01*
X383083Y5544563D01*
X411811Y5563758D01*
X436242Y5588189D01*
X455437Y5616917D01*
X468659Y5648838D01*
X475400Y5682725D01*
Y5687300D01*
D02*
G37*
G36*
X287300D02*
X124600D01*
Y5682725D01*
X131341Y5648838D01*
X144563Y5616917D01*
X163758Y5588189D01*
X188189Y5563758D01*
X216917Y5544563D01*
X248838Y5531341D01*
X282725Y5524600D01*
X287300D01*
Y5687300D01*
D02*
G37*
G36*
X3268864Y1812900D02*
X3239137D01*
X3210422Y1805206D01*
X3189283Y1793001D01*
X3254000Y1728284D01*
X3318717Y1793001D01*
X3297578Y1805206D01*
X3268864Y1812900D01*
D02*
G37*
G36*
X3160999Y1764717D02*
X3148794Y1743578D01*
X3141100Y1714863D01*
Y1685136D01*
X3148794Y1656422D01*
X3160999Y1635283D01*
X3225716Y1700000D01*
X3160999Y1764717D01*
D02*
G37*
G36*
X3347001Y1764717D02*
X3282285Y1700000D01*
X3347001Y1635283D01*
X3359206Y1656422D01*
X3366900Y1685136D01*
Y1714863D01*
X3359206Y1743578D01*
X3347001Y1764717D01*
D02*
G37*
G36*
X3254000Y1671715D02*
X3189283Y1606999D01*
X3210422Y1594794D01*
X3239137Y1587100D01*
X3268864D01*
X3297578Y1594794D01*
X3318717Y1606999D01*
X3254000Y1671715D01*
D02*
G37*
G36*
X3410864Y1162900D02*
X3381136D01*
X3352422Y1155206D01*
X3331283Y1143001D01*
X3396000Y1078284D01*
X3460717Y1143001D01*
X3439578Y1155206D01*
X3410864Y1162900D01*
D02*
G37*
G36*
X2618863D02*
X2589136D01*
X2560422Y1155206D01*
X2539282Y1143001D01*
X2603999Y1078284D01*
X2668716Y1143002D01*
X2647577Y1155206D01*
X2618863Y1162900D01*
D02*
G37*
G36*
X2510998Y1114716D02*
X2498794Y1093578D01*
X2491100Y1064864D01*
Y1035136D01*
X2498794Y1006422D01*
X2510998Y985283D01*
X2575715Y1050000D01*
X2510998Y1114716D01*
D02*
G37*
G36*
X3489001Y1114717D02*
X3424284Y1050000D01*
X3489001Y985283D01*
X3501206Y1006422D01*
X3508900Y1035136D01*
Y1064864D01*
X3501206Y1093578D01*
X3489001Y1114717D01*
D02*
G37*
G36*
X3302999D02*
X3290794Y1093578D01*
X3283100Y1064864D01*
Y1035136D01*
X3290794Y1006422D01*
X3302999Y985283D01*
X3367716Y1050000D01*
X3302999Y1114717D01*
D02*
G37*
G36*
X2697001Y1114717D02*
X2632284Y1050000D01*
X2697001Y985283D01*
X2709205Y1006422D01*
X2716900Y1035136D01*
Y1064864D01*
X2709205Y1093578D01*
X2697001Y1114717D01*
D02*
G37*
G36*
X3396000Y1021716D02*
X3331283Y956999D01*
X3352422Y944794D01*
X3381136Y937100D01*
X3410864D01*
X3439578Y944794D01*
X3460717Y956999D01*
X3396000Y1021716D01*
D02*
G37*
G36*
X2603999D02*
X2539282Y956999D01*
X2560422Y944794D01*
X2589136Y937100D01*
X2618863D01*
X2647577Y944794D01*
X2668716Y956998D01*
X2603999Y1021716D01*
D02*
G37*
G36*
X5716509Y825400D02*
X5683491D01*
X5651598Y816854D01*
X5623003Y800345D01*
X5599655Y776997D01*
X5583146Y748403D01*
X5574600Y716509D01*
Y683491D01*
X5583146Y651598D01*
X5599655Y623003D01*
X5623003Y599655D01*
X5651598Y583146D01*
X5683491Y574600D01*
X5716509D01*
X5748403Y583146D01*
X5776997Y599655D01*
X5800345Y623003D01*
X5816854Y651598D01*
X5825400Y683491D01*
Y716509D01*
X5816854Y748403D01*
X5800345Y776997D01*
X5776997Y800345D01*
X5748403Y816854D01*
X5716509Y825400D01*
D02*
G37*
G36*
X3258864Y520900D02*
X3229137D01*
X3200422Y513206D01*
X3179283Y501001D01*
X3244000Y436284D01*
X3308717Y501001D01*
X3287578Y513206D01*
X3258864Y520900D01*
D02*
G37*
G36*
X3150999Y472717D02*
X3138794Y451578D01*
X3131100Y422864D01*
Y393136D01*
X3138794Y364422D01*
X3150999Y343283D01*
X3215716Y408000D01*
X3150999Y472717D01*
D02*
G37*
G36*
X3337001Y472717D02*
X3272285Y408000D01*
X3337001Y343283D01*
X3349206Y364422D01*
X3356900Y393136D01*
Y422864D01*
X3349206Y451578D01*
X3337001Y472717D01*
D02*
G37*
G36*
X5717275Y475400D02*
X5712700D01*
Y312700D01*
X5875400D01*
Y317275D01*
X5868659Y351162D01*
X5855437Y383083D01*
X5836242Y411811D01*
X5811811Y436242D01*
X5783083Y455437D01*
X5751162Y468659D01*
X5717275Y475400D01*
D02*
G37*
G36*
X5687300D02*
X5682725D01*
X5648838Y468659D01*
X5616917Y455437D01*
X5588189Y436242D01*
X5563758Y411811D01*
X5544563Y383083D01*
X5531341Y351162D01*
X5524600Y317275D01*
Y312700D01*
X5687300D01*
Y475400D01*
D02*
G37*
G36*
X317275D02*
X312700D01*
Y312700D01*
X475400D01*
Y317275D01*
X468659Y351162D01*
X455437Y383083D01*
X436242Y411811D01*
X411811Y436242D01*
X383083Y455437D01*
X351162Y468659D01*
X317275Y475400D01*
D02*
G37*
G36*
X287300D02*
X282725D01*
X248838Y468659D01*
X216917Y455437D01*
X188189Y436242D01*
X163758Y411811D01*
X144563Y383083D01*
X131341Y351162D01*
X124600Y317275D01*
Y312700D01*
X287300D01*
Y475400D01*
D02*
G37*
G36*
X3244000Y379716D02*
X3179283Y314999D01*
X3200422Y302794D01*
X3229137Y295100D01*
X3258864D01*
X3287578Y302794D01*
X3308717Y314999D01*
X3244000Y379716D01*
D02*
G37*
G36*
X5875400Y287300D02*
X5712700D01*
Y124600D01*
X5717275D01*
X5751162Y131341D01*
X5783083Y144563D01*
X5811811Y163758D01*
X5836242Y188189D01*
X5855437Y216917D01*
X5868659Y248838D01*
X5875400Y282725D01*
Y287300D01*
D02*
G37*
G36*
X5687300D02*
X5524600D01*
Y282725D01*
X5531341Y248838D01*
X5544563Y216917D01*
X5563758Y188189D01*
X5588189Y163758D01*
X5616917Y144563D01*
X5648838Y131341D01*
X5682725Y124600D01*
X5687300D01*
Y287300D01*
D02*
G37*
G36*
X475400D02*
X312700D01*
Y124600D01*
X317275D01*
X351162Y131341D01*
X383083Y144563D01*
X411811Y163758D01*
X436242Y188189D01*
X455437Y216917D01*
X468659Y248838D01*
X475400Y282725D01*
Y287300D01*
D02*
G37*
G36*
X287300D02*
X124600D01*
Y282725D01*
X131341Y248838D01*
X144563Y216917D01*
X163758Y188189D01*
X188189Y163758D01*
X216917Y144563D01*
X248838Y131341D01*
X282725Y124600D01*
X287300D01*
Y287300D01*
D02*
G37*
%LPD*%
G36*
X1311602Y9638398D02*
Y9611332D01*
X1299807Y9606790D01*
X1299722Y9606804D01*
X1275080Y9643684D01*
X1273525Y9645239D01*
X1128285Y9499999D01*
X1273524Y9354760D01*
X1275080Y9356316D01*
X1299747Y9393233D01*
X1312300Y9423539D01*
X1325000Y9421012D01*
Y9045000D01*
X1420000Y8950000D01*
X1972500D01*
X2200000Y9177500D01*
X3150000D01*
X3350000Y8977500D01*
X3900000D01*
X3970000Y8927500D01*
Y8790000D01*
X3890000Y8732500D01*
X3175000Y8727500D01*
X3129634Y8772867D01*
X3134494Y8784600D01*
X3272114D01*
X3198357Y8858357D01*
X3212500Y8872499D01*
X3200000Y8884999D01*
X3173358Y8858357D01*
X3099600Y8932115D01*
Y8819494D01*
X3087867Y8814634D01*
X3025000Y8877500D01*
Y9027500D01*
X2975000Y9077500D01*
X2275000D01*
X2147500Y8950000D01*
X2150000D01*
X2225000Y8875000D01*
Y8859475D01*
X2213455Y8853060D01*
X2212300Y8853363D01*
X2196345Y8880997D01*
X2172997Y8904345D01*
X2144403Y8920854D01*
X2112509Y8929400D01*
X2108700D01*
Y8804000D01*
X2096000D01*
Y8791300D01*
X1970600D01*
Y8787491D01*
X1979146Y8755597D01*
X1995655Y8727003D01*
X2009958Y8712700D01*
X2004697Y8700000D01*
X1509999Y8699999D01*
X1459999Y8649999D01*
X1460000Y8499999D01*
X1975000Y7985000D01*
Y7959695D01*
X1962300Y7956292D01*
X1952153Y7973868D01*
X1878285Y7900000D01*
X1952152Y7826133D01*
X1962300Y7843710D01*
X1975000Y7840307D01*
Y7825000D01*
X1750000Y7600000D01*
Y6470000D01*
X2151100D01*
Y6349000D01*
X2157406D01*
X2162266Y6337267D01*
X2125000Y6300000D01*
X1818900D01*
Y6422716D01*
X1749142Y6352957D01*
X1720858Y6381242D01*
X1790615Y6451000D01*
X1649384D01*
X1719142Y6381242D01*
X1690858Y6352957D01*
X1621100Y6422715D01*
Y6300000D01*
X1580000D01*
Y7895000D01*
X940359Y8534641D01*
X948157Y8544803D01*
X972422Y8530794D01*
X1001136Y8523100D01*
X1003300D01*
Y8623301D01*
X903100D01*
Y8621136D01*
X910794Y8592422D01*
X924803Y8568157D01*
X914641Y8560359D01*
X875000Y8600000D01*
Y9421013D01*
X887700Y9423539D01*
X900253Y9393233D01*
X924920Y9356316D01*
X926477Y9354760D01*
X1071716Y9499999D01*
X926476Y9645239D01*
X924920Y9643684D01*
X900253Y9606767D01*
X887700Y9576461D01*
X875000Y9578987D01*
Y9650000D01*
X1000000Y9775000D01*
X1175000D01*
X1311602Y9638398D01*
D02*
G37*
G36*
X1782500Y9612500D02*
X2080584D01*
X2083987Y9599800D01*
X2077963Y9596322D01*
X2164142Y9510143D01*
X2250322Y9423963D01*
X2264525Y9448563D01*
X2272900Y9479820D01*
Y9512180D01*
X2264525Y9543438D01*
X2248344Y9571462D01*
X2244040Y9575767D01*
X2248901Y9587500D01*
X3202500D01*
X3230000Y9560000D01*
Y9487500D01*
X3207500Y9465000D01*
X3201268Y9435400D01*
X3105678D01*
X3100000Y9450000D01*
X2900000D01*
X2892408Y9435400D01*
X2787100D01*
X2707500Y9515000D01*
X2517500D01*
X2383975Y9381476D01*
X2221972D01*
X2218685Y9393743D01*
X2222038Y9395679D01*
X2150000Y9467716D01*
X2077962Y9395678D01*
X2081315Y9393743D01*
X2078028Y9381476D01*
X1806025D01*
X1802500Y9385000D01*
X1687500Y9270000D01*
X1614172D01*
X1612921Y9282700D01*
X1615747Y9283262D01*
X1656767Y9300253D01*
X1693684Y9324920D01*
X1695239Y9326475D01*
X1535857Y9485857D01*
X1376475Y9645239D01*
X1374921Y9643684D01*
X1350253Y9606767D01*
X1349956Y9606049D01*
X1337500Y9608527D01*
Y9647500D01*
X1440000Y9750000D01*
X1645000D01*
X1782500Y9612500D01*
D02*
G37*
G36*
X2011825Y7814835D02*
X2027003Y7799656D01*
X2055598Y7783147D01*
X2062809Y7781215D01*
Y7104000D01*
X2065944Y7088237D01*
X2074873Y7074873D01*
X2228873Y6920873D01*
X2242237Y6911944D01*
X2258000Y6908809D01*
X2432938D01*
X2678809Y6662938D01*
Y6640699D01*
X2676106Y6638894D01*
X2668973Y6628218D01*
X2666468Y6615625D01*
Y6482375D01*
X2668172Y6473806D01*
X2667070Y6471811D01*
X2660189Y6464930D01*
X2658194Y6463828D01*
X2649625Y6465532D01*
X2624192D01*
Y6566999D01*
X2621056Y6582763D01*
X2612127Y6596126D01*
X2436122Y6772131D01*
X2440400Y6788099D01*
Y6811902D01*
X2434239Y6834893D01*
X2422338Y6855507D01*
X2405507Y6872338D01*
X2384893Y6884239D01*
X2361902Y6890400D01*
X2338099D01*
X2315107Y6884239D01*
X2294493Y6872338D01*
X2277662Y6855507D01*
X2265761Y6834893D01*
X2259600Y6811902D01*
Y6788099D01*
X2265761Y6765107D01*
X2277662Y6744493D01*
X2294493Y6727662D01*
X2315107Y6715761D01*
X2338099Y6709600D01*
X2361902D01*
X2377868Y6713878D01*
X2541809Y6549937D01*
Y6465532D01*
X2516375D01*
X2503782Y6463027D01*
X2493106Y6455894D01*
X2485973Y6445218D01*
X2483468Y6432625D01*
Y6391376D01*
X2476912Y6383387D01*
X2442000D01*
X2422335Y6379475D01*
X2421454Y6378887D01*
X2391686D01*
X2348900Y6421672D01*
X2348900Y6520000D01*
X2348900Y6529500D01*
Y6662716D01*
X2279142Y6592958D01*
X2250858Y6621242D01*
X2320615Y6691000D01*
X2179385D01*
X2249142Y6621242D01*
X2220858Y6592958D01*
X2151100Y6662715D01*
Y6529500D01*
X2151100Y6520000D01*
X2151100Y6509431D01*
X2142120Y6500451D01*
X2124400D01*
X2104717Y6497859D01*
X2099981Y6495898D01*
X1775898D01*
Y7589273D01*
X1993312Y7806688D01*
X1996796Y7811902D01*
X2008166Y7814907D01*
X2011825Y7814835D01*
D02*
G37*
G36*
X3006783Y6451973D02*
X3019376Y6449468D01*
X3060625D01*
X3073218Y6451973D01*
X3080000Y6456504D01*
X3086782Y6451972D01*
X3099375Y6449467D01*
X3140625D01*
X3153218Y6451972D01*
X3160000Y6456504D01*
X3166782Y6451972D01*
X3179375Y6449467D01*
X3220625D01*
X3233218Y6451972D01*
X3240000Y6456504D01*
X3246783Y6451972D01*
X3259376Y6449467D01*
X3300625D01*
X3309194Y6451172D01*
X3311189Y6450070D01*
X3318071Y6443188D01*
X3319173Y6441193D01*
X3317468Y6432624D01*
Y6391375D01*
X3319973Y6378782D01*
X3324504Y6372000D01*
X3319973Y6365218D01*
X3317468Y6352625D01*
Y6311375D01*
X3319973Y6298782D01*
X3324504Y6292000D01*
X3319973Y6285218D01*
X3317468Y6272624D01*
Y6231375D01*
X3319973Y6218782D01*
X3324504Y6212000D01*
X3319973Y6205217D01*
X3317468Y6192624D01*
Y6151375D01*
X3319973Y6138782D01*
X3324505Y6131999D01*
X3319973Y6125217D01*
X3317468Y6112624D01*
Y6071374D01*
X3319973Y6058781D01*
X3324504Y6052000D01*
X3319973Y6045218D01*
X3317468Y6032624D01*
Y5991375D01*
X3319973Y5978782D01*
X3324504Y5971999D01*
X3319973Y5965217D01*
X3317468Y5952624D01*
Y5911375D01*
X3319973Y5898782D01*
X3324505Y5891999D01*
X3319973Y5885217D01*
X3317468Y5872624D01*
Y5831374D01*
X3319172Y5822806D01*
X3318070Y5820810D01*
X3311189Y5813929D01*
X3309194Y5812827D01*
X3300625Y5814532D01*
X3259375D01*
X3246782Y5812027D01*
X3240000Y5807495D01*
X3233218Y5812027D01*
X3220625Y5814532D01*
X3179375D01*
X3166782Y5812027D01*
X3160000Y5807495D01*
X3153218Y5812027D01*
X3140625Y5814532D01*
X3099375D01*
X3086782Y5812027D01*
X3080000Y5807495D01*
X3073218Y5812027D01*
X3060625Y5814532D01*
X3019375D01*
X3006782Y5812027D01*
X3000000Y5807495D01*
X2993218Y5812027D01*
X2980624Y5814532D01*
X2939375D01*
X2926782Y5812027D01*
X2920000Y5807495D01*
X2913218Y5812027D01*
X2900625Y5814532D01*
X2859375D01*
X2846782Y5812027D01*
X2840000Y5807495D01*
X2833218Y5812027D01*
X2820625Y5814532D01*
X2779375D01*
X2766782Y5812027D01*
X2760000Y5807495D01*
X2753218Y5812027D01*
X2740624Y5814532D01*
X2699375D01*
X2690806Y5812828D01*
X2688811Y5813930D01*
X2681930Y5820811D01*
X2680828Y5822806D01*
X2682532Y5831375D01*
Y5872625D01*
X2680027Y5885218D01*
X2675496Y5891999D01*
X2680028Y5898782D01*
X2682533Y5911375D01*
Y5952624D01*
X2680028Y5965217D01*
X2675496Y5972000D01*
X2680027Y5978782D01*
X2682532Y5991375D01*
Y6032624D01*
X2680027Y6045218D01*
X2675496Y6052000D01*
X2680027Y6058782D01*
X2682532Y6071375D01*
Y6112625D01*
X2680027Y6125218D01*
X2675496Y6132000D01*
X2680027Y6138782D01*
X2682532Y6151375D01*
Y6192625D01*
X2680027Y6205218D01*
X2675496Y6212000D01*
X2680027Y6218782D01*
X2682532Y6231375D01*
Y6272624D01*
X2680027Y6285218D01*
X2675496Y6292000D01*
X2680027Y6298782D01*
X2682532Y6311375D01*
Y6352625D01*
X2680027Y6365218D01*
X2675496Y6372000D01*
X2680027Y6378782D01*
X2682532Y6391375D01*
Y6432625D01*
X2680828Y6441194D01*
X2681930Y6443189D01*
X2688811Y6450070D01*
X2690806Y6451172D01*
X2699375Y6449468D01*
X2740625D01*
X2753218Y6451973D01*
X2760000Y6456504D01*
X2766782Y6451972D01*
X2779375Y6449467D01*
X2820625D01*
X2833218Y6451972D01*
X2840000Y6456504D01*
X2846782Y6451972D01*
X2859375Y6449467D01*
X2900625D01*
X2913218Y6451972D01*
X2920000Y6456504D01*
X2926782Y6451972D01*
X2939375Y6449467D01*
X2980625D01*
X2993218Y6451972D01*
X3000001Y6456504D01*
X3006783Y6451973D01*
D02*
G37*
G36*
X2746610Y5610555D02*
Y5512074D01*
X2467268Y5232732D01*
X2457234Y5217714D01*
X2453710Y5200000D01*
X2453711Y5199999D01*
Y4400001D01*
X2453710Y4400000D01*
X2457234Y4382286D01*
X2467268Y4367268D01*
X3857710Y2976826D01*
Y2623316D01*
X3833598Y2616855D01*
X3805003Y2600346D01*
X3781655Y2576998D01*
X3765146Y2548404D01*
X3761574Y2535074D01*
X3748426D01*
X3744854Y2548404D01*
X3728345Y2576998D01*
X3704997Y2600346D01*
X3676403Y2616855D01*
X3644509Y2625401D01*
X3611491D01*
X3579598Y2616855D01*
X3551003Y2600346D01*
X3527655Y2576998D01*
X3511146Y2548404D01*
X3507574Y2535074D01*
X3494426D01*
X3490854Y2548404D01*
X3474345Y2576998D01*
X3450997Y2600346D01*
X3422403Y2616855D01*
X3390509Y2625401D01*
X3357491D01*
X3325598Y2616855D01*
X3297003Y2600346D01*
X3273655Y2576998D01*
X3257146Y2548404D01*
X3253574Y2535074D01*
X3240426D01*
X3236854Y2548404D01*
X3220345Y2576998D01*
X3196997Y2600346D01*
X3168403Y2616855D01*
X3136509Y2625401D01*
X3103491D01*
X3071598Y2616855D01*
X3043003Y2600346D01*
X3019655Y2576998D01*
X3003146Y2548404D01*
X2999574Y2535074D01*
X2986426D01*
X2982854Y2548404D01*
X2966345Y2576998D01*
X2942997Y2600346D01*
X2914403Y2616855D01*
X2882509Y2625401D01*
X2849491D01*
X2817598Y2616855D01*
X2789003Y2600346D01*
X2765655Y2576998D01*
X2749146Y2548404D01*
X2745574Y2535074D01*
X2732426D01*
X2728854Y2548404D01*
X2712345Y2576998D01*
X2688997Y2600346D01*
X2660403Y2616855D01*
X2628509Y2625401D01*
X2595491D01*
X2563598Y2616855D01*
X2561703Y2615762D01*
X2296290Y2881175D01*
Y5180826D01*
X2730931Y5615468D01*
X2740624D01*
X2746610Y5610555D01*
D02*
G37*
%LPC*%
G36*
X1122200Y9725400D02*
X1077800D01*
X1034253Y9716738D01*
X993233Y9699747D01*
X956316Y9675080D01*
X954760Y9673524D01*
X1100001Y9528283D01*
X1245240Y9673523D01*
X1243684Y9675080D01*
X1206767Y9699747D01*
X1165747Y9716738D01*
X1122200Y9725400D01*
D02*
G37*
G36*
X1100001Y9471715D02*
X954761Y9326475D01*
X956316Y9324920D01*
X993233Y9300253D01*
X1034253Y9283262D01*
X1077800Y9274600D01*
X1122200D01*
X1165747Y9283262D01*
X1206767Y9300253D01*
X1243684Y9324920D01*
X1245239Y9326476D01*
X1100001Y9471715D01*
D02*
G37*
G36*
X3272116Y8960400D02*
X3127884D01*
X3200000Y8888284D01*
X3272116Y8960400D01*
D02*
G37*
G36*
X2083300Y8929400D02*
X2079491D01*
X2072391Y8927498D01*
D01*
X2047598Y8920854D01*
X2019003Y8904345D01*
X1995655Y8880997D01*
X1979146Y8852402D01*
X1970600Y8820509D01*
Y8816700D01*
X2083300D01*
Y8929400D01*
D02*
G37*
G36*
X3300400Y8932115D02*
X3240784Y8872499D01*
X3300400Y8812884D01*
Y8932115D01*
D02*
G37*
G36*
X1030864Y8748900D02*
X1028700D01*
Y8648701D01*
X1128900D01*
Y8650864D01*
X1121206Y8679578D01*
X1106342Y8705322D01*
X1085322Y8726342D01*
X1059578Y8741206D01*
X1030864Y8748900D01*
D02*
G37*
G36*
X1003300D02*
X1001136D01*
X972422Y8741206D01*
X946678Y8726342D01*
X925658Y8705322D01*
X910794Y8679578D01*
X903100Y8650864D01*
Y8648701D01*
X1003300D01*
Y8748900D01*
D02*
G37*
G36*
X1128900Y8623301D02*
X1028700D01*
Y8523100D01*
X1030864D01*
X1059578Y8530794D01*
X1085322Y8545658D01*
X1106342Y8566678D01*
X1121206Y8592422D01*
X1128900Y8621136D01*
Y8623301D01*
D02*
G37*
G36*
X1866509Y8025401D02*
X1833491D01*
X1801598Y8016855D01*
X1776132Y8002153D01*
X1850001Y7928285D01*
X1923869Y8002153D01*
X1898403Y8016855D01*
X1866509Y8025401D01*
D02*
G37*
G36*
X1747848Y7973868D02*
X1733146Y7948404D01*
X1724600Y7916510D01*
Y7883492D01*
X1733146Y7851599D01*
X1747849Y7826133D01*
X1821716Y7900000D01*
X1747848Y7973868D01*
D02*
G37*
G36*
X1850001Y7871716D02*
X1776134Y7797849D01*
X1801598Y7783147D01*
X1833491Y7774601D01*
X1866509D01*
X1898403Y7783147D01*
X1923867Y7797849D01*
X1850001Y7871716D01*
D02*
G37*
G36*
X1572200Y9725400D02*
X1527800D01*
X1484254Y9716738D01*
X1443233Y9699747D01*
X1406316Y9675080D01*
X1404760Y9673523D01*
X1550000Y9528283D01*
X1695240Y9673524D01*
X1693684Y9675080D01*
X1656767Y9699747D01*
X1615747Y9716738D01*
X1572200Y9725400D01*
D02*
G37*
G36*
X2049678Y9568038D02*
X2035475Y9543438D01*
X2027100Y9512180D01*
Y9479820D01*
X2035475Y9448563D01*
X2049678Y9423963D01*
X2121716Y9496001D01*
X2049678Y9568038D01*
D02*
G37*
G36*
X1723524Y9645240D02*
X1578284Y9499999D01*
X1723523Y9354760D01*
X1725080Y9356316D01*
X1749747Y9393233D01*
X1766738Y9434253D01*
X1775400Y9477800D01*
Y9522200D01*
X1766738Y9565747D01*
X1749747Y9606767D01*
X1725080Y9643684D01*
X1723524Y9645240D01*
D02*
G37*
%LPD*%
D10*
X3526961Y6230073D02*
G03*
X3483625Y6249900I-43336J-37449D01*
G01*
X2265000Y6432900D02*
X2370400Y6327500D01*
X2250000Y6432900D02*
X2265000D01*
X2370400Y6327500D02*
X2437500D01*
X3465500Y6249900D02*
X3483625D01*
X5000000Y6000000D02*
Y9564410D01*
X4953000Y9611410D02*
Y9652000D01*
Y9611410D02*
X5000000Y9564410D01*
X4125000Y7050000D02*
X4650000Y7575000D01*
Y9447000D01*
X4445000Y9652000D02*
X4650000Y9447000D01*
X3600000Y5600000D02*
X4600000D01*
X5000000Y6000000D01*
X3526961Y6230073D02*
X3574958Y6175047D01*
X2430500Y6172000D02*
X2583000D01*
X2437500Y6327500D02*
X2442000Y6332000D01*
X2583000D01*
X3417000Y6252000D02*
X3465500Y6249900D01*
X2308500Y6025000D02*
X2425000D01*
X2260000Y6014900D02*
X2308500Y6025000D01*
X2425000D02*
X2459100Y6059100D01*
X3417000Y6012000D02*
X3419100Y6009900D01*
X3414900Y6014099D02*
X3417000Y6012000D01*
X2492651Y6089900D02*
X2534500D01*
X2459100Y6056349D02*
Y6059100D01*
Y6056349D02*
X2492651Y6089900D01*
X2534500D02*
X2583000Y6092000D01*
X3937000Y9652000D02*
X4400000Y9189000D01*
Y7650000D02*
Y9189000D01*
X4125000Y7375000D02*
X4400000Y7650000D01*
X3282501Y6682501D02*
X3650000Y7050000D01*
X4125000D01*
X3202101Y6752101D02*
X3825000Y7375000D01*
X4125000D01*
X3282501Y6551500D02*
Y6682501D01*
X3280001Y6549000D02*
X3282501Y6551500D01*
X3202101Y6551100D02*
Y6752101D01*
X3465500Y5734500D02*
Y5849499D01*
Y5734500D02*
X3600000Y5600000D01*
X3220000Y6140610D02*
X3249289Y6169899D01*
X3220000Y6043389D02*
X3249289Y6014099D01*
X3417000Y5851999D02*
X3463000D01*
X3512100Y6009900D02*
X3560000Y5962000D01*
X3463000Y5851999D02*
X3465500Y5849499D01*
X3414900Y6169899D02*
X3417000Y6172000D01*
X3249289Y6014099D02*
X3414900D01*
X3249289Y6169899D02*
X3414900D01*
X3419100Y6009900D02*
X3512100D01*
X3220000Y6043389D02*
Y6140610D01*
D11*
X3300000Y9450000D02*
G03*
X3275000Y9425000I0J-25000D01*
G01*
X3574958Y6175047D02*
X3616923Y6133082D01*
X3726500Y6126080D02*
Y6130600D01*
X3711500Y6111080D02*
X3726500Y6126080D01*
X3594920Y6111080D02*
X3711500D01*
X3726500Y6130600D02*
X3750000Y6107100D01*
X2260000Y6014900D02*
X2298500Y6024937D01*
X3152000Y9350000D02*
X3152500Y9349500D01*
X3152000Y9350000D02*
Y9475500D01*
X3142500Y9485000D02*
X3152000Y9475500D01*
X2848000Y9350000D02*
Y9478000D01*
X2855000Y9485000D01*
X2700000Y9305000D02*
X2725000Y9330000D01*
X2700000Y9262527D02*
Y9305000D01*
X3300000Y9250000D02*
Y9450000D01*
X3275000Y9350000D02*
Y9425000D01*
X3560000Y5962000D02*
X3584601Y5937399D01*
X3605200D01*
D12*
X3200000Y5250000D02*
D03*
X3450000D02*
D03*
X2979127Y4920873D02*
D03*
X2750000Y4950000D02*
D03*
X3730000Y5240000D02*
D03*
D13*
X3750000Y6107100D02*
D03*
Y5932900D02*
D03*
X2260000Y6189100D02*
D03*
Y6014900D02*
D03*
X1720000Y6192900D02*
D03*
Y6367100D02*
D03*
X4010000Y5932900D02*
D03*
Y6107100D02*
D03*
X2250000Y6607100D02*
D03*
Y6432900D02*
D03*
D14*
X3280001Y6549000D02*
D03*
X3200000D02*
D03*
X3120000D02*
D03*
X3040001Y6549000D02*
D03*
X2960000Y6549000D02*
D03*
X2880000D02*
D03*
X2800000Y6548999D02*
D03*
X2720000Y6549000D02*
D03*
X2720000Y5715000D02*
D03*
X2800000D02*
D03*
X2880000D02*
D03*
X2960000Y5714999D02*
D03*
X3040000Y5715000D02*
D03*
X3120000D02*
D03*
X3200000Y5715000D02*
D03*
X3280000Y5714999D02*
D03*
D15*
X3417000Y5851999D02*
D03*
Y5932000D02*
D03*
Y6012000D02*
D03*
X3417000Y6091999D02*
D03*
X3417000Y6172000D02*
D03*
Y6252000D02*
D03*
X3417000Y6332000D02*
D03*
X3417000Y6412000D02*
D03*
X2583000Y6412000D02*
D03*
Y6332000D02*
D03*
Y6252000D02*
D03*
X2583000Y6172000D02*
D03*
X2583000Y6092000D02*
D03*
Y6012000D02*
D03*
X2583000Y5932000D02*
D03*
X2583000Y5852000D02*
D03*
D16*
X3750000Y6822500D02*
D03*
Y6477500D02*
D03*
X3200000Y8527500D02*
D03*
Y8872500D02*
D03*
D17*
X2725000Y9350000D02*
D03*
X3275000D02*
D03*
D18*
X2848000D02*
D03*
X3152000D02*
D03*
D19*
X2950000D02*
D03*
X3050000D02*
D03*
D20*
X4050000Y6555000D02*
D03*
Y6745000D02*
D03*
D21*
Y6650000D02*
D03*
D22*
X2124400Y6424400D02*
X2241500D01*
X2100000Y6400000D02*
X2124400Y6424400D01*
X2241500D02*
X2250000Y6432900D01*
X2421900Y6180600D02*
X2430500Y6172000D01*
X2268500Y6180600D02*
X2421900D01*
X2260000Y6189100D02*
X2268500Y6180600D01*
X2250000Y6197599D02*
Y6432900D01*
X1720000Y6367100D02*
X1722900Y6370000D01*
X1880000D01*
X1660000Y6427100D02*
X1696500Y6390600D01*
X1705000Y6367100D02*
X1720000D01*
X1696500Y6375600D02*
X1705000Y6367100D01*
X1696500Y6375600D02*
Y6390600D01*
X1660000Y6427100D02*
Y6540000D01*
X4820000Y7628991D02*
X4830000Y7618991D01*
X4820000Y7628991D02*
Y8300000D01*
X4830000Y6912100D02*
Y7618991D01*
X4018500Y6115600D02*
X4033500D01*
X4010000Y6107100D02*
X4018500Y6115600D01*
X4033500D02*
X4830000Y6912100D01*
X3750000Y6107100D02*
X4010000D01*
X2250000Y6197599D02*
X2258500Y6189100D01*
X2260000D01*
X2100000Y8808000D02*
Y9000000D01*
X2096000Y8804000D02*
X2100000Y8808000D01*
X1896000Y8804000D02*
X2096000D01*
X1875000Y8825000D02*
X1896000Y8804000D01*
X3200000Y8872500D02*
X3202500Y8870000D01*
D23*
X2950000Y8700000D02*
Y8930000D01*
X2583000Y6412000D02*
Y6566999D01*
X2350000Y6799999D02*
Y6800000D01*
Y6799999D02*
X2583000Y6566999D01*
X4220000Y8550000D02*
X4230000Y8540000D01*
X3200000Y8550000D02*
X4220000D01*
X5207000Y5257000D02*
Y8509000D01*
X4700000Y4750000D02*
X5207000Y5257000D01*
X2577074Y5846073D02*
X2583000Y5852000D01*
X2577074Y5797073D02*
Y5846073D01*
X1600000Y1545999D02*
Y4820000D01*
X2577074Y5797073D01*
X1600000Y1545999D02*
X2096000Y1050000D01*
X2100000Y7904001D02*
Y8546000D01*
Y7904001D02*
X2104000Y7900001D01*
X2096000Y8550000D02*
X2100000Y8546000D01*
X2410000Y9020000D02*
X2860000D01*
X2950000Y8930000D01*
X2350000Y8804000D02*
Y8960000D01*
X2410000Y9020000D01*
X2354000Y7904001D02*
Y8546000D01*
X2350000Y8550000D02*
X2354000Y8546000D01*
Y7904001D02*
X2358000Y7900001D01*
X2104000Y7104000D02*
Y7900001D01*
X2354000Y7896001D02*
X2358000Y7900001D01*
X4050000Y6650000D02*
X4300000D01*
X2612000Y8087000D02*
X2950000Y8425000D01*
X2612000Y7088000D02*
Y8087000D01*
X2604000Y8550000D02*
X3200000D01*
X2972100Y7072101D02*
X3150000Y7250000D01*
X3120000Y7900001D02*
X3150000Y7870001D01*
Y7250000D02*
Y7870001D01*
X3400000Y4750000D02*
X4700000D01*
X2767528Y5217528D02*
X2867900Y5317900D01*
X2767528Y5000000D02*
Y5217528D01*
X2867900Y5317900D02*
Y5702900D01*
X2880000Y5715000D01*
X3040000Y5110000D02*
X3400000Y4750000D01*
X3040000Y5110000D02*
Y5715000D01*
X2950000Y4950000D02*
X2960000Y4960000D01*
Y5714999D01*
X3907500Y6477500D02*
X3985000Y6555000D01*
X4050000D01*
X3750000Y6477500D02*
X3907500D01*
Y6822500D02*
X3985000Y6745000D01*
X3750000Y6822500D02*
X3907500D01*
X3985000Y6745000D02*
X4050000D01*
X3417000Y6412000D02*
Y6502000D01*
X3737500Y6822500D01*
X3750000D01*
X3592000Y6332000D02*
X3737500Y6477500D01*
X3750000D01*
X3417000Y6332000D02*
X3592000D01*
X3120000Y6812489D02*
X3628000Y7320489D01*
Y7900001D01*
X3120000Y6549000D02*
Y6812489D01*
X3040001Y6549000D02*
Y6890001D01*
X3374000Y7224000D02*
Y7900001D01*
X3040001Y6890001D02*
X3374000Y7224000D01*
X2612000Y7088000D02*
X2800000Y6900000D01*
Y6548999D02*
Y6900000D01*
X2258000Y6950000D02*
X2450000D01*
X2104000Y7104000D02*
X2258000Y6950000D01*
X2450000D02*
X2720000Y6680000D01*
X2354000Y7104000D02*
Y7896001D01*
X2350000Y7100000D02*
X2354000Y7104000D01*
X2972100Y6561100D02*
Y7072101D01*
X2960000Y6549000D02*
X2972100Y6561100D01*
X2873000Y6556000D02*
Y7893001D01*
X2866000Y7900001D02*
X2873000Y7893001D01*
Y6556000D02*
X2880000Y6549000D01*
X2720000Y6549000D02*
Y6680000D01*
D24*
X3882000Y7900001D02*
Y8298000D01*
X3880000Y8300000D02*
X3882000Y8298000D01*
D25*
X3710000Y5240000D02*
X3730000D01*
X3288500Y5661499D02*
X3710000Y5240000D01*
X3287500Y5661499D02*
X3288500D01*
X3280000Y5669000D02*
Y5714999D01*
Y5669000D02*
X3287500Y5661499D01*
X1522000Y408000D02*
X2736000D01*
X850000Y1080000D02*
Y5160000D01*
Y1080000D02*
X1522000Y408000D01*
X2340000Y5790000D02*
X2481587Y5931587D01*
X850000Y5160000D02*
X1480000Y5790000D01*
X2340000D01*
X2481587Y5931587D02*
X2582588D01*
X2583000Y5932000D01*
X2500000Y5200000D02*
X2792900Y5492900D01*
X2500000Y4400000D02*
Y5200000D01*
Y4400000D02*
X3904000Y2996000D01*
X2250000Y2862001D02*
Y5200000D01*
X2711500Y5661500D01*
X2712500D01*
X2720000Y5669000D01*
Y5715000D01*
X2250000Y2862001D02*
X2612000Y2500001D01*
Y1834000D02*
Y2500001D01*
Y1834000D02*
X2746000Y1700000D01*
X3904000Y2500001D02*
Y2996000D01*
Y2500001D02*
X3904000Y1050000D01*
X3470500Y6085979D02*
X3594920Y6111080D01*
X3417000Y6091999D02*
X3470500Y6085979D01*
X2792900Y5492900D02*
Y5707899D01*
X3120000Y5359766D02*
Y5715000D01*
Y5359766D02*
X3200000Y5279766D01*
Y5250000D02*
Y5279766D01*
X3200000Y5500000D02*
X3450000Y5250000D01*
X3200000Y5500000D02*
Y5715000D01*
X2792900Y5707899D02*
X2800000Y5715000D01*
D26*
X5700000Y700000D02*
D03*
X200000Y9600000D02*
D03*
D27*
X2604000Y1050000D02*
D03*
X2096000D02*
D03*
X762000Y8636000D02*
D03*
X1016000D02*
D03*
X3244000Y408000D02*
D03*
X2736000D02*
D03*
X3254000Y1700000D02*
D03*
X2746000D02*
D03*
X5207000Y8509000D02*
D03*
Y9017000D02*
D03*
X3904000Y1050000D02*
D03*
X3396000D02*
D03*
D28*
X5700000Y5700000D02*
D03*
X300000D02*
D03*
X5700000Y9000000D02*
D03*
Y300000D02*
D03*
X300000D02*
D03*
Y9000000D02*
D03*
D29*
X2866000Y2500001D02*
D03*
X2612000D02*
D03*
X2358000D02*
D03*
X2104000D02*
D03*
X1850000D02*
D03*
X4136000D02*
D03*
X3882000D02*
D03*
X3628000D02*
D03*
X3374000D02*
D03*
X3120000D02*
D03*
X2866000Y7900001D02*
D03*
X2612000D02*
D03*
X2358000D02*
D03*
X2104000D02*
D03*
X1850000D02*
D03*
X4136000D02*
D03*
X3882000D02*
D03*
X3628000D02*
D03*
X3374000D02*
D03*
X3120000D02*
D03*
X2604000Y8804000D02*
D03*
Y8550000D02*
D03*
X2350000Y8804000D02*
D03*
Y8550000D02*
D03*
X2096000Y8804000D02*
D03*
Y8550000D02*
D03*
X5461000Y9652000D02*
D03*
X4953000D02*
D03*
X3937000D02*
D03*
X4445000D02*
D03*
D30*
X2150000Y9496000D02*
D03*
Y9750000D02*
D03*
D31*
X3432000Y9738000D02*
D03*
X2568000D02*
D03*
Y9358000D02*
D03*
X3432000D02*
D03*
D32*
X650000Y9500000D02*
D03*
X1100000D02*
D03*
X1550000D02*
D03*
D33*
X1960000Y6950000D02*
D03*
X2950000Y8700000D02*
D03*
X2990000Y6110000D02*
D03*
X4230000Y8540000D02*
D03*
X4820000Y8300000D02*
D03*
X3880000D02*
D03*
X4300000Y5880000D02*
D03*
X4500000Y7020000D02*
D03*
X4850001Y6550001D02*
D03*
X650000Y1650001D02*
D03*
Y3050001D02*
D03*
Y2350001D02*
D03*
Y3750001D02*
D03*
Y4450001D02*
D03*
Y5150001D02*
D03*
X1350001Y1650001D02*
D03*
X1350000Y4800000D02*
D03*
X1100000Y2650000D02*
D03*
Y3400000D02*
D03*
Y4100000D02*
D03*
X2750001Y3050001D02*
D03*
Y3750001D02*
D03*
X2050001Y3050001D02*
D03*
Y3750001D02*
D03*
Y4450001D02*
D03*
X3443683Y3743683D02*
D03*
X4150001Y3050001D02*
D03*
Y1650001D02*
D03*
Y3750001D02*
D03*
X1500000Y5500000D02*
D03*
X3000000Y1050000D02*
D03*
X5600000Y8650000D02*
D03*
Y7950000D02*
D03*
Y7250000D02*
D03*
Y6550000D02*
D03*
Y5150000D02*
D03*
Y4450000D02*
D03*
Y3750000D02*
D03*
Y3050000D02*
D03*
Y2350000D02*
D03*
Y1650000D02*
D03*
Y950000D02*
D03*
X4850001Y9350002D02*
D03*
Y5150001D02*
D03*
Y4450001D02*
D03*
Y3750001D02*
D03*
Y950000D02*
D03*
Y250000D02*
D03*
X4150001Y7250002D02*
D03*
Y5150001D02*
D03*
Y4450001D02*
D03*
Y950000D02*
D03*
Y250000D02*
D03*
X3450001Y4450001D02*
D03*
Y3050001D02*
D03*
Y250000D02*
D03*
X2050001D02*
D03*
X1350001Y7950002D02*
D03*
Y7250002D02*
D03*
Y6550001D02*
D03*
Y950000D02*
D03*
Y250000D02*
D03*
X650000Y7950002D02*
D03*
Y7250002D02*
D03*
Y6550001D02*
D03*
Y5850001D02*
D03*
Y250000D02*
D03*
X3880000Y8850000D02*
D03*
X2950000Y8425000D02*
D03*
X2350000Y6800000D02*
D03*
Y7100000D02*
D03*
%TF.MD5,7862ceffc87f7122fe16b259ce1aea8f*%
M02*
