%TF.GenerationSoftware,Altium Limited,Altium Designer,24.0.1 (36)*%
G04 Layer_Color=16711935*
%FSLAX45Y45*%
%MOMM*%
%TF.SameCoordinates,EF88BD92-104B-4C59-846E-D9FF23BA8C3F*%
%TF.FilePolarity,Negative*%
%TF.FileFunction,Soldermask,Bot*%
%TF.Part,Single*%
G01*
G75*
%TA.AperFunction,WasherPad*%
%ADD46C,1.35520*%
%TA.AperFunction,ComponentPad*%
%ADD47C,1.95320*%
%TA.AperFunction,ViaPad*%
%ADD48C,3.20320*%
%TA.AperFunction,ComponentPad*%
%ADD49C,2.20320*%
%ADD50C,2.15320*%
%ADD51O,1.72700X2.32700*%
%ADD52C,4.20320*%
D46*
X5700000Y700000D02*
D03*
X200000Y9600000D02*
D03*
D47*
X2604000Y1050000D02*
D03*
X2096000D02*
D03*
X762000Y8636000D02*
D03*
X1016000D02*
D03*
X3244000Y408000D02*
D03*
X2736000D02*
D03*
X3254000Y1700000D02*
D03*
X2746000D02*
D03*
X5207000Y8509000D02*
D03*
Y9017000D02*
D03*
X3904000Y1050000D02*
D03*
X3396000D02*
D03*
D48*
X5700000Y5700000D02*
D03*
X300000D02*
D03*
X5700000Y9000000D02*
D03*
Y300000D02*
D03*
X300000D02*
D03*
Y9000000D02*
D03*
D49*
X2866000Y2500001D02*
D03*
X2612000D02*
D03*
X2358000D02*
D03*
X2104000D02*
D03*
X1850000D02*
D03*
X4136000D02*
D03*
X3882000D02*
D03*
X3628000D02*
D03*
X3374000D02*
D03*
X3120000D02*
D03*
X2866000Y7900001D02*
D03*
X2612000D02*
D03*
X2358000D02*
D03*
X2104000D02*
D03*
X1850000D02*
D03*
X4136000D02*
D03*
X3882000D02*
D03*
X3628000D02*
D03*
X3374000D02*
D03*
X3120000D02*
D03*
X2604000Y8804000D02*
D03*
Y8550000D02*
D03*
X2350000Y8804000D02*
D03*
Y8550000D02*
D03*
X2096000Y8804000D02*
D03*
Y8550000D02*
D03*
X5461000Y9652000D02*
D03*
X4953000D02*
D03*
X3937000D02*
D03*
X4445000D02*
D03*
D50*
X2150000Y9496000D02*
D03*
Y9750000D02*
D03*
D51*
X3432000Y9738000D02*
D03*
X2568000D02*
D03*
Y9358000D02*
D03*
X3432000D02*
D03*
D52*
X650000Y9500000D02*
D03*
X1100000D02*
D03*
X1550000D02*
D03*
%TF.MD5,8355ed7b5258defa6cff252659fccd36*%
M02*
