%TF.GenerationSoftware,Altium Limited,Altium Designer,24.0.1 (36)*%
G04 Layer_Color=8388736*
%FSLAX45Y45*%
%MOMM*%
%TF.SameCoordinates,EF88BD92-104B-4C59-846E-D9FF23BA8C3F*%
%TF.FilePolarity,Negative*%
%TF.FileFunction,Soldermask,Top*%
%TF.Part,Single*%
G01*
G75*
%TA.AperFunction,SMDPad,CuDef*%
%ADD36C,1.70320*%
%ADD37R,1.67320X1.37320*%
G04:AMPARAMS|DCode=38|XSize=0.754mm|YSize=1.674mm|CornerRadius=0.17075mm|HoleSize=0mm|Usage=FLASHONLY|Rotation=180.000|XOffset=0mm|YOffset=0mm|HoleType=Round|Shape=RoundedRectangle|*
%AMROUNDEDRECTD38*
21,1,0.75400,1.33250,0,0,180.0*
21,1,0.41250,1.67400,0,0,180.0*
1,1,0.34150,-0.20625,0.66625*
1,1,0.34150,0.20625,0.66625*
1,1,0.34150,0.20625,-0.66625*
1,1,0.34150,-0.20625,-0.66625*
%
%ADD38ROUNDEDRECTD38*%
G04:AMPARAMS|DCode=39|XSize=1.674mm|YSize=0.754mm|CornerRadius=0.17075mm|HoleSize=0mm|Usage=FLASHONLY|Rotation=180.000|XOffset=0mm|YOffset=0mm|HoleType=Round|Shape=RoundedRectangle|*
%AMROUNDEDRECTD39*
21,1,1.67400,0.41250,0,0,180.0*
21,1,1.33250,0.75400,0,0,180.0*
1,1,0.34150,-0.66625,0.20625*
1,1,0.34150,0.66625,0.20625*
1,1,0.34150,0.66625,-0.20625*
1,1,0.34150,-0.66625,-0.20625*
%
%ADD39ROUNDEDRECTD39*%
%ADD40R,1.70320X1.45320*%
%TA.AperFunction,ConnectorPad*%
%ADD41R,0.92700X1.32700*%
%ADD42R,0.88700X1.32700*%
%ADD43R,0.82700X1.32700*%
%TA.AperFunction,SMDPad,CuDef*%
%ADD44R,2.10320X0.80320*%
%ADD45R,2.10320X0.60320*%
%TA.AperFunction,WasherPad*%
%ADD46C,1.35520*%
%TA.AperFunction,ComponentPad*%
%ADD47C,1.95320*%
%TA.AperFunction,ViaPad*%
%ADD48C,3.20320*%
%TA.AperFunction,ComponentPad*%
%ADD49C,2.20320*%
%ADD50C,2.15320*%
%ADD51O,1.72700X2.32700*%
%ADD52C,4.20320*%
D36*
X3200000Y5250000D02*
D03*
X3450000D02*
D03*
X2979127Y4920873D02*
D03*
X2750000Y4950000D02*
D03*
X3730000Y5240000D02*
D03*
D37*
X3750000Y6107100D02*
D03*
Y5932900D02*
D03*
X2260000Y6189100D02*
D03*
Y6014900D02*
D03*
X1720000Y6192900D02*
D03*
Y6367100D02*
D03*
X4010000Y5932900D02*
D03*
Y6107100D02*
D03*
X2250000Y6607100D02*
D03*
Y6432900D02*
D03*
D38*
X3280001Y6549000D02*
D03*
X3200000D02*
D03*
X3120000D02*
D03*
X3040001Y6549000D02*
D03*
X2960000Y6549000D02*
D03*
X2880000D02*
D03*
X2800000Y6548999D02*
D03*
X2720000Y6549000D02*
D03*
X2720000Y5715000D02*
D03*
X2800000D02*
D03*
X2880000D02*
D03*
X2960000Y5714999D02*
D03*
X3040000Y5715000D02*
D03*
X3120000D02*
D03*
X3200000Y5715000D02*
D03*
X3280000Y5714999D02*
D03*
D39*
X3417000Y5851999D02*
D03*
Y5932000D02*
D03*
Y6012000D02*
D03*
X3417000Y6091999D02*
D03*
X3417000Y6172000D02*
D03*
Y6252000D02*
D03*
X3417000Y6332000D02*
D03*
X3417000Y6412000D02*
D03*
X2583000Y6412000D02*
D03*
Y6332000D02*
D03*
Y6252000D02*
D03*
X2583000Y6172000D02*
D03*
X2583000Y6092000D02*
D03*
Y6012000D02*
D03*
X2583000Y5932000D02*
D03*
X2583000Y5852000D02*
D03*
D40*
X3750000Y6822500D02*
D03*
Y6477500D02*
D03*
X3200000Y8527500D02*
D03*
Y8872500D02*
D03*
D41*
X2725000Y9350000D02*
D03*
X3275000D02*
D03*
D42*
X2848000D02*
D03*
X3152000D02*
D03*
D43*
X2950000D02*
D03*
X3050000D02*
D03*
D44*
X4050000Y6555000D02*
D03*
Y6745000D02*
D03*
D45*
Y6650000D02*
D03*
D46*
X5700000Y700000D02*
D03*
X200000Y9600000D02*
D03*
D47*
X2604000Y1050000D02*
D03*
X2096000D02*
D03*
X762000Y8636000D02*
D03*
X1016000D02*
D03*
X3244000Y408000D02*
D03*
X2736000D02*
D03*
X3254000Y1700000D02*
D03*
X2746000D02*
D03*
X5207000Y8509000D02*
D03*
Y9017000D02*
D03*
X3904000Y1050000D02*
D03*
X3396000D02*
D03*
D48*
X5700000Y5700000D02*
D03*
X300000D02*
D03*
X5700000Y9000000D02*
D03*
Y300000D02*
D03*
X300000D02*
D03*
Y9000000D02*
D03*
D49*
X2866000Y2500001D02*
D03*
X2612000D02*
D03*
X2358000D02*
D03*
X2104000D02*
D03*
X1850000D02*
D03*
X4136000D02*
D03*
X3882000D02*
D03*
X3628000D02*
D03*
X3374000D02*
D03*
X3120000D02*
D03*
X2866000Y7900001D02*
D03*
X2612000D02*
D03*
X2358000D02*
D03*
X2104000D02*
D03*
X1850000D02*
D03*
X4136000D02*
D03*
X3882000D02*
D03*
X3628000D02*
D03*
X3374000D02*
D03*
X3120000D02*
D03*
X2604000Y8804000D02*
D03*
Y8550000D02*
D03*
X2350000Y8804000D02*
D03*
Y8550000D02*
D03*
X2096000Y8804000D02*
D03*
Y8550000D02*
D03*
X5461000Y9652000D02*
D03*
X4953000D02*
D03*
X3937000D02*
D03*
X4445000D02*
D03*
D50*
X2150000Y9496000D02*
D03*
Y9750000D02*
D03*
D51*
X3432000Y9738000D02*
D03*
X2568000D02*
D03*
Y9358000D02*
D03*
X3432000D02*
D03*
D52*
X650000Y9500000D02*
D03*
X1100000D02*
D03*
X1550000D02*
D03*
%TF.MD5,c22896159b7c6e1a66aa8c69879894bc*%
M02*
