%TF.GenerationSoftware,Altium Limited,Altium Designer,24.0.1 (36)*%
G04 Layer_Color=255*
%FSLAX45Y45*%
%MOMM*%
%TF.SameCoordinates,EF88BD92-104B-4C59-846E-D9FF23BA8C3F*%
%TF.FilePolarity,Positive*%
%TF.FileFunction,Pads,Bot*%
%TF.Part,Single*%
G01*
G75*
%TA.AperFunction,WasherPad*%
%ADD26C,1.15200*%
%TA.AperFunction,ComponentPad*%
%ADD27C,1.75000*%
%TA.AperFunction,ViaPad*%
%ADD28C,3.00000*%
%TA.AperFunction,ComponentPad*%
%ADD29C,2.00000*%
%ADD30C,1.95000*%
%ADD31O,1.60000X2.20000*%
%ADD32C,4.00000*%
D26*
X5700000Y700000D02*
D03*
X200000Y9600000D02*
D03*
D27*
X2604000Y1050000D02*
D03*
X2096000D02*
D03*
X762000Y8636000D02*
D03*
X1016000D02*
D03*
X3244000Y408000D02*
D03*
X2736000D02*
D03*
X3254000Y1700000D02*
D03*
X2746000D02*
D03*
X5207000Y8509000D02*
D03*
Y9017000D02*
D03*
X3904000Y1050000D02*
D03*
X3396000D02*
D03*
D28*
X5700000Y5700000D02*
D03*
X300000D02*
D03*
X5700000Y9000000D02*
D03*
Y300000D02*
D03*
X300000D02*
D03*
Y9000000D02*
D03*
D29*
X2866000Y2500001D02*
D03*
X2612000D02*
D03*
X2358000D02*
D03*
X2104000D02*
D03*
X1850000D02*
D03*
X4136000D02*
D03*
X3882000D02*
D03*
X3628000D02*
D03*
X3374000D02*
D03*
X3120000D02*
D03*
X2866000Y7900001D02*
D03*
X2612000D02*
D03*
X2358000D02*
D03*
X2104000D02*
D03*
X1850000D02*
D03*
X4136000D02*
D03*
X3882000D02*
D03*
X3628000D02*
D03*
X3374000D02*
D03*
X3120000D02*
D03*
X2604000Y8804000D02*
D03*
Y8550000D02*
D03*
X2350000Y8804000D02*
D03*
Y8550000D02*
D03*
X2096000Y8804000D02*
D03*
Y8550000D02*
D03*
X5461000Y9652000D02*
D03*
X4953000D02*
D03*
X3937000D02*
D03*
X4445000D02*
D03*
D30*
X2150000Y9496000D02*
D03*
Y9750000D02*
D03*
D31*
X3432000Y9738000D02*
D03*
X2568000D02*
D03*
Y9358000D02*
D03*
X3432000D02*
D03*
D32*
X650000Y9500000D02*
D03*
X1100000D02*
D03*
X1550000D02*
D03*
%TF.MD5,1ad116e3649d057b77b8c2e1640fd427*%
M02*
