%TF.GenerationSoftware,Altium Limited,Altium Designer,24.0.1 (36)*%
G04 Layer_Color=8421504*
%FSLAX45Y45*%
%MOMM*%
%TF.SameCoordinates,EF88BD92-104B-4C59-846E-D9FF23BA8C3F*%
%TF.FilePolarity,Positive*%
%TF.FileFunction,Paste,Top*%
%TF.Part,Single*%
G01*
G75*
%TA.AperFunction,SMDPad,CuDef*%
%ADD12C,1.50000*%
%ADD13R,1.47000X1.17000*%
G04:AMPARAMS|DCode=14|XSize=0.55mm|YSize=1.47mm|CornerRadius=0.06875mm|HoleSize=0mm|Usage=FLASHONLY|Rotation=180.000|XOffset=0mm|YOffset=0mm|HoleType=Round|Shape=RoundedRectangle|*
%AMROUNDEDRECTD14*
21,1,0.55000,1.33250,0,0,180.0*
21,1,0.41250,1.47000,0,0,180.0*
1,1,0.13750,-0.20625,0.66625*
1,1,0.13750,0.20625,0.66625*
1,1,0.13750,0.20625,-0.66625*
1,1,0.13750,-0.20625,-0.66625*
%
%ADD14ROUNDEDRECTD14*%
G04:AMPARAMS|DCode=15|XSize=1.47mm|YSize=0.55mm|CornerRadius=0.06875mm|HoleSize=0mm|Usage=FLASHONLY|Rotation=180.000|XOffset=0mm|YOffset=0mm|HoleType=Round|Shape=RoundedRectangle|*
%AMROUNDEDRECTD15*
21,1,1.47000,0.41250,0,0,180.0*
21,1,1.33250,0.55000,0,0,180.0*
1,1,0.13750,-0.66625,0.20625*
1,1,0.13750,0.66625,0.20625*
1,1,0.13750,0.66625,-0.20625*
1,1,0.13750,-0.66625,-0.20625*
%
%ADD15ROUNDEDRECTD15*%
%ADD16R,1.50000X1.25000*%
%TA.AperFunction,ConnectorPad*%
%ADD17R,0.80000X1.20000*%
%ADD18R,0.76000X1.20000*%
%ADD19R,0.70000X1.20000*%
%TA.AperFunction,SMDPad,CuDef*%
%ADD20R,1.90000X0.60000*%
%ADD21R,1.90000X0.40000*%
D12*
X3200000Y5250000D02*
D03*
X3450000D02*
D03*
X2979127Y4920873D02*
D03*
X2750000Y4950000D02*
D03*
X3730000Y5240000D02*
D03*
D13*
X3750000Y6107100D02*
D03*
Y5932900D02*
D03*
X2260000Y6189100D02*
D03*
Y6014900D02*
D03*
X1720000Y6192900D02*
D03*
Y6367100D02*
D03*
X4010000Y5932900D02*
D03*
Y6107100D02*
D03*
X2250000Y6607100D02*
D03*
Y6432900D02*
D03*
D14*
X3280001Y6549000D02*
D03*
X3200000D02*
D03*
X3120000D02*
D03*
X3040001Y6549000D02*
D03*
X2960000Y6549000D02*
D03*
X2880000D02*
D03*
X2800000Y6548999D02*
D03*
X2720000Y6549000D02*
D03*
X2720000Y5715000D02*
D03*
X2800000D02*
D03*
X2880000D02*
D03*
X2960000Y5714999D02*
D03*
X3040000Y5715000D02*
D03*
X3120000D02*
D03*
X3200000Y5715000D02*
D03*
X3280000Y5714999D02*
D03*
D15*
X3417000Y5851999D02*
D03*
Y5932000D02*
D03*
Y6012000D02*
D03*
X3417000Y6091999D02*
D03*
X3417000Y6172000D02*
D03*
Y6252000D02*
D03*
X3417000Y6332000D02*
D03*
X3417000Y6412000D02*
D03*
X2583000Y6412000D02*
D03*
Y6332000D02*
D03*
Y6252000D02*
D03*
X2583000Y6172000D02*
D03*
X2583000Y6092000D02*
D03*
Y6012000D02*
D03*
X2583000Y5932000D02*
D03*
X2583000Y5852000D02*
D03*
D16*
X3750000Y6822500D02*
D03*
Y6477500D02*
D03*
X3200000Y8527500D02*
D03*
Y8872500D02*
D03*
D17*
X2725000Y9350000D02*
D03*
X3275000D02*
D03*
D18*
X2848000D02*
D03*
X3152000D02*
D03*
D19*
X2950000D02*
D03*
X3050000D02*
D03*
D20*
X4050000Y6555000D02*
D03*
Y6745000D02*
D03*
D21*
Y6650000D02*
D03*
%TF.MD5,4cf3bbd3fe1787f40f20caf0a864faa4*%
M02*
