%TF.GenerationSoftware,Altium Limited,Altium Designer,24.0.1 (36)*%
G04 Layer_Color=255*
%FSLAX45Y45*%
%MOMM*%
%TF.SameCoordinates,EF88BD92-104B-4C59-846E-D9FF23BA8C3F*%
%TF.FilePolarity,Positive*%
%TF.FileFunction,Pads,Top*%
%TF.Part,Single*%
G01*
G75*
%TA.AperFunction,SMDPad,CuDef*%
%ADD12C,1.50000*%
%ADD13R,1.47000X1.17000*%
G04:AMPARAMS|DCode=14|XSize=0.55mm|YSize=1.47mm|CornerRadius=0.06875mm|HoleSize=0mm|Usage=FLASHONLY|Rotation=180.000|XOffset=0mm|YOffset=0mm|HoleType=Round|Shape=RoundedRectangle|*
%AMROUNDEDRECTD14*
21,1,0.55000,1.33250,0,0,180.0*
21,1,0.41250,1.47000,0,0,180.0*
1,1,0.13750,-0.20625,0.66625*
1,1,0.13750,0.20625,0.66625*
1,1,0.13750,0.20625,-0.66625*
1,1,0.13750,-0.20625,-0.66625*
%
%ADD14ROUNDEDRECTD14*%
G04:AMPARAMS|DCode=15|XSize=1.47mm|YSize=0.55mm|CornerRadius=0.06875mm|HoleSize=0mm|Usage=FLASHONLY|Rotation=180.000|XOffset=0mm|YOffset=0mm|HoleType=Round|Shape=RoundedRectangle|*
%AMROUNDEDRECTD15*
21,1,1.47000,0.41250,0,0,180.0*
21,1,1.33250,0.55000,0,0,180.0*
1,1,0.13750,-0.66625,0.20625*
1,1,0.13750,0.66625,0.20625*
1,1,0.13750,0.66625,-0.20625*
1,1,0.13750,-0.66625,-0.20625*
%
%ADD15ROUNDEDRECTD15*%
%ADD16R,1.50000X1.25000*%
%TA.AperFunction,ConnectorPad*%
%ADD17R,0.80000X1.20000*%
%ADD18R,0.76000X1.20000*%
%ADD19R,0.70000X1.20000*%
%TA.AperFunction,SMDPad,CuDef*%
%ADD20R,1.90000X0.60000*%
%ADD21R,1.90000X0.40000*%
%TA.AperFunction,WasherPad*%
%ADD26C,1.15200*%
%TA.AperFunction,ComponentPad*%
%ADD27C,1.75000*%
%TA.AperFunction,ViaPad*%
%ADD28C,3.00000*%
%TA.AperFunction,ComponentPad*%
%ADD29C,2.00000*%
%ADD30C,1.95000*%
%ADD31O,1.60000X2.20000*%
%ADD32C,4.00000*%
D12*
X3200000Y5250000D02*
D03*
X3450000D02*
D03*
X2979127Y4920873D02*
D03*
X2750000Y4950000D02*
D03*
X3730000Y5240000D02*
D03*
D13*
X3750000Y6107100D02*
D03*
Y5932900D02*
D03*
X2260000Y6189100D02*
D03*
Y6014900D02*
D03*
X1720000Y6192900D02*
D03*
Y6367100D02*
D03*
X4010000Y5932900D02*
D03*
Y6107100D02*
D03*
X2250000Y6607100D02*
D03*
Y6432900D02*
D03*
D14*
X3280001Y6549000D02*
D03*
X3200000D02*
D03*
X3120000D02*
D03*
X3040001Y6549000D02*
D03*
X2960000Y6549000D02*
D03*
X2880000D02*
D03*
X2800000Y6548999D02*
D03*
X2720000Y6549000D02*
D03*
X2720000Y5715000D02*
D03*
X2800000D02*
D03*
X2880000D02*
D03*
X2960000Y5714999D02*
D03*
X3040000Y5715000D02*
D03*
X3120000D02*
D03*
X3200000Y5715000D02*
D03*
X3280000Y5714999D02*
D03*
D15*
X3417000Y5851999D02*
D03*
Y5932000D02*
D03*
Y6012000D02*
D03*
X3417000Y6091999D02*
D03*
X3417000Y6172000D02*
D03*
Y6252000D02*
D03*
X3417000Y6332000D02*
D03*
X3417000Y6412000D02*
D03*
X2583000Y6412000D02*
D03*
Y6332000D02*
D03*
Y6252000D02*
D03*
X2583000Y6172000D02*
D03*
X2583000Y6092000D02*
D03*
Y6012000D02*
D03*
X2583000Y5932000D02*
D03*
X2583000Y5852000D02*
D03*
D16*
X3750000Y6822500D02*
D03*
Y6477500D02*
D03*
X3200000Y8527500D02*
D03*
Y8872500D02*
D03*
D17*
X2725000Y9350000D02*
D03*
X3275000D02*
D03*
D18*
X2848000D02*
D03*
X3152000D02*
D03*
D19*
X2950000D02*
D03*
X3050000D02*
D03*
D20*
X4050000Y6555000D02*
D03*
Y6745000D02*
D03*
D21*
Y6650000D02*
D03*
D26*
X5700000Y700000D02*
D03*
X200000Y9600000D02*
D03*
D27*
X2604000Y1050000D02*
D03*
X2096000D02*
D03*
X762000Y8636000D02*
D03*
X1016000D02*
D03*
X3244000Y408000D02*
D03*
X2736000D02*
D03*
X3254000Y1700000D02*
D03*
X2746000D02*
D03*
X5207000Y8509000D02*
D03*
Y9017000D02*
D03*
X3904000Y1050000D02*
D03*
X3396000D02*
D03*
D28*
X5700000Y5700000D02*
D03*
X300000D02*
D03*
X5700000Y9000000D02*
D03*
Y300000D02*
D03*
X300000D02*
D03*
Y9000000D02*
D03*
D29*
X2866000Y2500001D02*
D03*
X2612000D02*
D03*
X2358000D02*
D03*
X2104000D02*
D03*
X1850000D02*
D03*
X4136000D02*
D03*
X3882000D02*
D03*
X3628000D02*
D03*
X3374000D02*
D03*
X3120000D02*
D03*
X2866000Y7900001D02*
D03*
X2612000D02*
D03*
X2358000D02*
D03*
X2104000D02*
D03*
X1850000D02*
D03*
X4136000D02*
D03*
X3882000D02*
D03*
X3628000D02*
D03*
X3374000D02*
D03*
X3120000D02*
D03*
X2604000Y8804000D02*
D03*
Y8550000D02*
D03*
X2350000Y8804000D02*
D03*
Y8550000D02*
D03*
X2096000Y8804000D02*
D03*
Y8550000D02*
D03*
X5461000Y9652000D02*
D03*
X4953000D02*
D03*
X3937000D02*
D03*
X4445000D02*
D03*
D30*
X2150000Y9496000D02*
D03*
Y9750000D02*
D03*
D31*
X3432000Y9738000D02*
D03*
X2568000D02*
D03*
Y9358000D02*
D03*
X3432000D02*
D03*
D32*
X650000Y9500000D02*
D03*
X1100000D02*
D03*
X1550000D02*
D03*
%TF.MD5,4e68f866fa6032d5f9a3985592170577*%
M02*
