%TF.GenerationSoftware,Altium Limited,Altium Designer,24.0.1 (36)*%
G04 Layer_Physical_Order=2*
G04 Layer_Color=16711680*
%FSLAX45Y45*%
%MOMM*%
%TF.SameCoordinates,EF88BD92-104B-4C59-846E-D9FF23BA8C3F*%
%TF.FilePolarity,Positive*%
%TF.FileFunction,Copper,L2,Bot,Signal*%
%TF.Part,Single*%
G01*
G75*
%TA.AperFunction,Conductor*%
%ADD23C,0.30000*%
%ADD24C,1.50000*%
%ADD25C,0.40000*%
%TA.AperFunction,WasherPad*%
%ADD26C,1.15200*%
%TA.AperFunction,ComponentPad*%
%ADD27C,1.75000*%
%TA.AperFunction,ViaPad*%
%ADD28C,3.00000*%
%TA.AperFunction,ComponentPad*%
%ADD29C,2.00000*%
%ADD30C,1.95000*%
%ADD31O,1.60000X2.20000*%
%ADD32C,4.00000*%
%TA.AperFunction,ViaPad*%
%ADD33C,1.30000*%
G36*
X5879169Y9946157D02*
X5897368Y9938619D01*
X5913746Y9927675D01*
X5927675Y9913746D01*
X5938619Y9897368D01*
X5946157Y9879169D01*
X5950000Y9859849D01*
Y9850000D01*
Y300000D01*
Y275377D01*
X5940392Y227078D01*
X5921547Y181580D01*
X5894188Y140634D01*
X5859366Y105812D01*
X5818419Y78453D01*
X5772922Y59607D01*
X5724623Y50000D01*
X185226D01*
X156247Y55764D01*
X128948Y67071D01*
X104381Y83487D01*
X83487Y104381D01*
X67071Y128948D01*
X55764Y156247D01*
X50000Y185226D01*
Y200000D01*
Y9700000D01*
Y9724623D01*
X59607Y9772922D01*
X78453Y9818419D01*
X105812Y9859366D01*
X140634Y9894187D01*
X181580Y9921547D01*
X227078Y9940392D01*
X275377Y9950000D01*
X5859849D01*
X5879169Y9946157D01*
D02*
G37*
%LPC*%
G36*
X3432000Y9874310D02*
X3404485Y9870687D01*
X3378845Y9860067D01*
X3372832Y9855453D01*
X3432000Y9796284D01*
X3491169Y9855452D01*
X3485154Y9860067D01*
X3459515Y9870687D01*
X3432000Y9874310D01*
D02*
G37*
G36*
X2568000D02*
X2540485Y9870687D01*
X2514845Y9860067D01*
X2508832Y9855453D01*
X2568000Y9796284D01*
X2627169Y9855452D01*
X2621155Y9860067D01*
X2595515Y9870687D01*
X2568000Y9874310D01*
D02*
G37*
G36*
X2166180Y9872900D02*
X2133820D01*
X2102562Y9864525D01*
X2077963Y9850322D01*
X2150000Y9778285D01*
X2222037Y9850322D01*
X2197438Y9864525D01*
X2166180Y9872900D01*
D02*
G37*
G36*
X5477509Y9777400D02*
X5444491D01*
X5412598Y9768854D01*
X5387132Y9754152D01*
X5461000Y9680284D01*
X5534868Y9754152D01*
X5509402Y9768854D01*
X5477509Y9777400D01*
D02*
G37*
G36*
X2250322Y9822038D02*
X2178285Y9750001D01*
X2250322Y9677963D01*
X2264525Y9702563D01*
X2272900Y9733820D01*
Y9766180D01*
X2264525Y9797438D01*
X2250322Y9822038D01*
D02*
G37*
G36*
X2049678D02*
X2035475Y9797438D01*
X2027100Y9766180D01*
Y9733820D01*
X2035475Y9702563D01*
X2049678Y9677963D01*
X2121716Y9750001D01*
X2049678Y9822038D01*
D02*
G37*
G36*
X3344547Y9827168D02*
X3339933Y9821155D01*
X3329313Y9795515D01*
X3325690Y9768000D01*
Y9708000D01*
X3329313Y9680485D01*
X3339933Y9654845D01*
X3344548Y9648831D01*
X3417858Y9722142D01*
X3432000Y9707999D01*
X3446142Y9722142D01*
X3519452Y9648832D01*
X3524066Y9654845D01*
X3534687Y9680485D01*
X3538309Y9708000D01*
Y9768000D01*
X3534687Y9795515D01*
X3524066Y9821155D01*
X3519453Y9827168D01*
X3446142Y9753858D01*
X3432000Y9768000D01*
X3417858Y9753858D01*
X3344547Y9827168D01*
D02*
G37*
G36*
X2480547D02*
X2475933Y9821155D01*
X2465313Y9795515D01*
X2461691Y9768000D01*
Y9708000D01*
X2465313Y9680485D01*
X2475933Y9654845D01*
X2480548Y9648831D01*
X2553858Y9722142D01*
X2568000Y9707999D01*
X2582143Y9722142D01*
X2655452Y9648832D01*
X2660067Y9654845D01*
X2670687Y9680485D01*
X2674309Y9708000D01*
Y9768000D01*
X2670687Y9795515D01*
X2660067Y9821155D01*
X2655453Y9827168D01*
X2582143Y9753858D01*
X2568000Y9768000D01*
X2553858Y9753858D01*
X2480547Y9827168D01*
D02*
G37*
G36*
X3432000Y9679715D02*
X3372832Y9620547D01*
X3378845Y9615933D01*
X3404485Y9605313D01*
X3432000Y9601690D01*
X3459515Y9605313D01*
X3485154Y9615933D01*
X3491168Y9620547D01*
X3432000Y9679715D01*
D02*
G37*
G36*
X2568000D02*
X2508833Y9620547D01*
X2514845Y9615933D01*
X2540485Y9605313D01*
X2568000Y9601690D01*
X2595515Y9605313D01*
X2621155Y9615933D01*
X2627168Y9620547D01*
X2568000Y9679715D01*
D02*
G37*
G36*
X5563152Y9725868D02*
X5489284Y9652000D01*
X5563152Y9578132D01*
X5577854Y9603598D01*
X5586400Y9635491D01*
Y9668509D01*
X5577854Y9700402D01*
X5563152Y9725868D01*
D02*
G37*
G36*
X5358848Y9725868D02*
X5344146Y9700402D01*
X5335600Y9668509D01*
Y9635491D01*
X5344146Y9603598D01*
X5358848Y9578132D01*
X5432716Y9652000D01*
X5358848Y9725868D01*
D02*
G37*
G36*
X1572200Y9725400D02*
X1527800D01*
X1484254Y9716738D01*
X1443233Y9699747D01*
X1406316Y9675080D01*
X1374921Y9643684D01*
X1350253Y9606767D01*
X1333262Y9565747D01*
X1331350Y9556134D01*
X1318650D01*
X1316738Y9565747D01*
X1299747Y9606767D01*
X1275080Y9643684D01*
X1243684Y9675080D01*
X1206767Y9699747D01*
X1165747Y9716738D01*
X1122200Y9725400D01*
X1077800D01*
X1034253Y9716738D01*
X993233Y9699747D01*
X956316Y9675080D01*
X924920Y9643684D01*
X900253Y9606767D01*
X883262Y9565747D01*
X881350Y9556134D01*
X868650D01*
X866738Y9565747D01*
X849747Y9606767D01*
X825080Y9643684D01*
X793684Y9675080D01*
X756767Y9699747D01*
X715747Y9716738D01*
X672200Y9725400D01*
X627800D01*
X584253Y9716738D01*
X543233Y9699747D01*
X506316Y9675080D01*
X474920Y9643684D01*
X450253Y9606767D01*
X433262Y9565747D01*
X424600Y9522200D01*
Y9477800D01*
X433262Y9434253D01*
X450253Y9393233D01*
X474920Y9356316D01*
X506316Y9324920D01*
X543233Y9300253D01*
X584253Y9283262D01*
X627800Y9274600D01*
X672200D01*
X715747Y9283262D01*
X756767Y9300253D01*
X793684Y9324920D01*
X825080Y9356316D01*
X849747Y9393233D01*
X866738Y9434253D01*
X868650Y9443866D01*
X881350D01*
X883262Y9434253D01*
X900253Y9393233D01*
X924920Y9356316D01*
X956316Y9324920D01*
X993233Y9300253D01*
X1034253Y9283262D01*
X1077800Y9274600D01*
X1122200D01*
X1165747Y9283262D01*
X1206767Y9300253D01*
X1243684Y9324920D01*
X1275080Y9356316D01*
X1299747Y9393233D01*
X1316738Y9434253D01*
X1318650Y9443866D01*
X1331350D01*
X1333262Y9434253D01*
X1350253Y9393233D01*
X1374921Y9356316D01*
X1406316Y9324920D01*
X1443233Y9300253D01*
X1484254Y9283262D01*
X1527800Y9274600D01*
X1572200D01*
X1615747Y9283262D01*
X1656767Y9300253D01*
X1693684Y9324920D01*
X1725080Y9356316D01*
X1749747Y9393233D01*
X1766738Y9434253D01*
X1775400Y9477800D01*
Y9522200D01*
X1766738Y9565747D01*
X1749747Y9606767D01*
X1725080Y9643684D01*
X1693684Y9675080D01*
X1656767Y9699747D01*
X1615747Y9716738D01*
X1572200Y9725400D01*
D02*
G37*
G36*
X5461000Y9623716D02*
X5387132Y9549848D01*
X5412598Y9535146D01*
X5444491Y9526600D01*
X5477509D01*
X5509402Y9535146D01*
X5534868Y9549848D01*
X5461000Y9623716D01*
D02*
G37*
G36*
X4969509Y9777400D02*
X4936491D01*
X4904598Y9768854D01*
X4876003Y9752345D01*
X4852655Y9728997D01*
X4836146Y9700402D01*
X4827600Y9668509D01*
Y9635491D01*
X4836146Y9603598D01*
X4852655Y9575003D01*
X4876003Y9551655D01*
X4904598Y9535146D01*
X4936491Y9526600D01*
X4969509D01*
X5001402Y9535146D01*
X5029997Y9551655D01*
X5053345Y9575003D01*
X5069854Y9603598D01*
X5078400Y9635491D01*
Y9668509D01*
X5069854Y9700402D01*
X5053345Y9728997D01*
X5029997Y9752345D01*
X5001402Y9768854D01*
X4969509Y9777400D01*
D02*
G37*
G36*
X4461509D02*
X4428491D01*
X4396598Y9768854D01*
X4368003Y9752345D01*
X4344655Y9728997D01*
X4328146Y9700402D01*
X4319600Y9668509D01*
Y9635491D01*
X4328146Y9603598D01*
X4344655Y9575003D01*
X4368003Y9551655D01*
X4396598Y9535146D01*
X4428491Y9526600D01*
X4461509D01*
X4493402Y9535146D01*
X4521997Y9551655D01*
X4545345Y9575003D01*
X4561854Y9603598D01*
X4570400Y9635491D01*
Y9668509D01*
X4561854Y9700402D01*
X4545345Y9728997D01*
X4521997Y9752345D01*
X4493402Y9768854D01*
X4461509Y9777400D01*
D02*
G37*
G36*
X3953509D02*
X3920491D01*
X3888598Y9768854D01*
X3860003Y9752345D01*
X3836655Y9728997D01*
X3820146Y9700402D01*
X3811600Y9668509D01*
Y9635491D01*
X3820146Y9603598D01*
X3836655Y9575003D01*
X3860003Y9551655D01*
X3888598Y9535146D01*
X3920491Y9526600D01*
X3953509D01*
X3985402Y9535146D01*
X4013997Y9551655D01*
X4037345Y9575003D01*
X4053854Y9603598D01*
X4062400Y9635491D01*
Y9668509D01*
X4053854Y9700402D01*
X4037345Y9728997D01*
X4013997Y9752345D01*
X3985402Y9768854D01*
X3953509Y9777400D01*
D02*
G37*
G36*
X216509Y9725400D02*
X183491D01*
X151598Y9716854D01*
X123003Y9700345D01*
X99655Y9676997D01*
X83146Y9648403D01*
X74600Y9616509D01*
Y9583491D01*
X83146Y9551598D01*
X99655Y9523003D01*
X123003Y9499655D01*
X151598Y9483146D01*
X183491Y9474600D01*
X216509D01*
X248403Y9483146D01*
X276997Y9499655D01*
X300345Y9523003D01*
X316854Y9551598D01*
X325400Y9583491D01*
Y9616509D01*
X316854Y9648403D01*
X300345Y9676997D01*
X276997Y9700345D01*
X248403Y9716854D01*
X216509Y9725400D01*
D02*
G37*
G36*
X3432000Y9494310D02*
X3404485Y9490687D01*
X3378845Y9480067D01*
X3372832Y9475453D01*
X3431999Y9416285D01*
X3491168Y9475453D01*
X3485155Y9480067D01*
X3459515Y9490687D01*
X3432000Y9494310D01*
D02*
G37*
G36*
X2568000D02*
X2540485Y9490687D01*
X2514845Y9480067D01*
X2508832Y9475453D01*
X2568000Y9416285D01*
X2627168Y9475453D01*
X2621155Y9480067D01*
X2595515Y9490687D01*
X2568000Y9494310D01*
D02*
G37*
G36*
X3519452Y9447169D02*
X3446142Y9373858D01*
X3431999Y9388001D01*
X3417857Y9373858D01*
X3344547Y9447168D01*
X3339933Y9441155D01*
X3329313Y9415515D01*
X3325690Y9388000D01*
Y9328000D01*
X3329313Y9300485D01*
X3339933Y9274845D01*
X3344547Y9268832D01*
X3417857Y9342142D01*
X3431999Y9328000D01*
X3446142Y9342142D01*
X3519452Y9268832D01*
X3524066Y9274845D01*
X3534687Y9300485D01*
X3538309Y9328000D01*
Y9388000D01*
X3534687Y9415515D01*
X3524066Y9441155D01*
X3519452Y9447169D01*
D02*
G37*
G36*
X2655452D02*
X2582142Y9373858D01*
X2568000Y9388001D01*
X2553857Y9373858D01*
X2480547Y9447168D01*
X2475933Y9441155D01*
X2465313Y9415515D01*
X2461691Y9388000D01*
Y9328000D01*
X2465313Y9300485D01*
X2475933Y9274845D01*
X2480547Y9268832D01*
X2553857Y9342142D01*
X2568000Y9328000D01*
X2582142Y9342142D01*
X2655452Y9268832D01*
X2660067Y9274845D01*
X2670687Y9300485D01*
X2674309Y9328000D01*
Y9388000D01*
X2670687Y9415515D01*
X2660067Y9441155D01*
X2655452Y9447169D01*
D02*
G37*
G36*
X2150000Y9721716D02*
X2077962Y9649678D01*
X2102562Y9635476D01*
X2124587Y9629574D01*
Y9616426D01*
X2102562Y9610525D01*
X2074538Y9594345D01*
X2051656Y9571462D01*
X2035475Y9543438D01*
X2027100Y9512180D01*
Y9479820D01*
X2035475Y9448563D01*
X2051656Y9420538D01*
X2074538Y9397656D01*
X2102562Y9381476D01*
X2133820Y9373100D01*
X2166180D01*
X2197438Y9381476D01*
X2225462Y9397656D01*
X2248344Y9420538D01*
X2264525Y9448563D01*
X2272900Y9479820D01*
Y9512180D01*
X2264525Y9543438D01*
X2248344Y9571462D01*
X2225462Y9594345D01*
X2197438Y9610525D01*
X2175413Y9616426D01*
Y9629574D01*
X2197438Y9635476D01*
X2222038Y9649679D01*
X2150000Y9721716D01*
D02*
G37*
G36*
X3431999Y9299716D02*
X3372831Y9240547D01*
X3378845Y9235933D01*
X3404485Y9225313D01*
X3432000Y9221690D01*
X3459515Y9225313D01*
X3485155Y9235933D01*
X3491168Y9240547D01*
X3431999Y9299716D01*
D02*
G37*
G36*
X2568000D02*
X2508832Y9240547D01*
X2514845Y9235933D01*
X2540485Y9225313D01*
X2568000Y9221690D01*
X2595515Y9225313D01*
X2621155Y9235933D01*
X2627168Y9240547D01*
X2568000Y9299716D01*
D02*
G37*
G36*
X5221864Y9129900D02*
X5192136D01*
X5163422Y9122206D01*
X5142284Y9110002D01*
X5207000Y9045285D01*
X5271717Y9110001D01*
X5250578Y9122206D01*
X5221864Y9129900D01*
D02*
G37*
G36*
X5717275Y9175400D02*
X5712700D01*
Y9012700D01*
X5875400D01*
Y9017275D01*
X5868659Y9051162D01*
X5855437Y9083083D01*
X5836242Y9111811D01*
X5811811Y9136242D01*
X5783083Y9155437D01*
X5751162Y9168659D01*
X5717275Y9175400D01*
D02*
G37*
G36*
X5687300D02*
X5682725D01*
X5648838Y9168659D01*
X5616917Y9155437D01*
X5588189Y9136242D01*
X5563758Y9111811D01*
X5544563Y9083083D01*
X5531341Y9051162D01*
X5524600Y9017275D01*
Y9012700D01*
X5687300D01*
Y9175400D01*
D02*
G37*
G36*
X317275D02*
X312700D01*
Y9012700D01*
X475400D01*
Y9017275D01*
X468659Y9051162D01*
X455437Y9083083D01*
X436242Y9111811D01*
X411811Y9136242D01*
X383083Y9155437D01*
X351162Y9168659D01*
X317275Y9175400D01*
D02*
G37*
G36*
X287300D02*
X282725D01*
X248838Y9168659D01*
X216917Y9155437D01*
X188189Y9136242D01*
X163758Y9111811D01*
X144563Y9083083D01*
X131341Y9051162D01*
X124600Y9017275D01*
Y9012700D01*
X287300D01*
Y9175400D01*
D02*
G37*
G36*
X5300001Y9081717D02*
X5235285Y9017001D01*
X5300002Y8952284D01*
X5312206Y8973422D01*
X5319900Y9002136D01*
Y9031864D01*
X5312206Y9060578D01*
X5300001Y9081717D01*
D02*
G37*
G36*
X5113999Y9081717D02*
X5101794Y9060578D01*
X5094100Y9031864D01*
Y9002136D01*
X5101794Y8973422D01*
X5113999Y8952283D01*
X5178716Y9017001D01*
X5113999Y9081717D01*
D02*
G37*
G36*
X5207000Y8988716D02*
X5142283Y8923999D01*
X5163422Y8911794D01*
X5192136Y8904100D01*
X5221864D01*
X5250578Y8911794D01*
X5271717Y8923999D01*
X5207000Y8988716D01*
D02*
G37*
G36*
X2591300Y8929400D02*
X2587491D01*
X2555598Y8920854D01*
X2527003Y8904345D01*
X2503655Y8880997D01*
X2487146Y8852402D01*
X2483574Y8839073D01*
X2470426D01*
X2466854Y8852402D01*
X2450345Y8880997D01*
X2426997Y8904345D01*
X2398403Y8920854D01*
X2366509Y8929400D01*
X2333491D01*
X2301598Y8920854D01*
X2273003Y8904345D01*
X2249655Y8880997D01*
X2233146Y8852402D01*
X2229574Y8839073D01*
X2216426D01*
X2212854Y8852402D01*
X2196345Y8880997D01*
X2172997Y8904345D01*
X2144403Y8920854D01*
X2112509Y8929400D01*
X2079491D01*
X2047598Y8920854D01*
X2019003Y8904345D01*
X1995655Y8880997D01*
X1979146Y8852402D01*
X1970600Y8820509D01*
Y8787491D01*
X1979146Y8755597D01*
X1995655Y8727003D01*
X2019003Y8703655D01*
X2047598Y8687146D01*
X2060927Y8683574D01*
Y8670426D01*
X2047598Y8666854D01*
X2019003Y8650345D01*
X1995655Y8626997D01*
X1979146Y8598402D01*
X1970600Y8566509D01*
Y8533491D01*
X1979146Y8501597D01*
X1995655Y8473003D01*
X2019003Y8449655D01*
X2047598Y8433146D01*
X2079491Y8424600D01*
X2112509D01*
X2144403Y8433146D01*
X2172997Y8449655D01*
X2196345Y8473003D01*
X2212854Y8501597D01*
X2216426Y8514927D01*
X2229574D01*
X2233146Y8501597D01*
X2249655Y8473003D01*
X2273003Y8449655D01*
X2301598Y8433146D01*
X2333491Y8424600D01*
X2366509D01*
X2398403Y8433146D01*
X2426997Y8449655D01*
X2450345Y8473003D01*
X2466854Y8501597D01*
X2470426Y8514927D01*
X2483574D01*
X2487146Y8501597D01*
X2503655Y8473003D01*
X2527003Y8449655D01*
X2555598Y8433146D01*
X2587491Y8424600D01*
X2620509D01*
X2652403Y8433146D01*
X2680997Y8449655D01*
X2704345Y8473003D01*
X2720854Y8501597D01*
X2729400Y8533491D01*
Y8566509D01*
X2720854Y8598402D01*
X2704345Y8626997D01*
X2680997Y8650345D01*
X2652403Y8666854D01*
X2639073Y8670426D01*
Y8683574D01*
X2652403Y8687146D01*
X2680997Y8703655D01*
X2704345Y8727003D01*
X2720854Y8755597D01*
X2729400Y8787491D01*
Y8791300D01*
X2604000D01*
Y8804000D01*
X2591300D01*
Y8929400D01*
D02*
G37*
G36*
X5875400Y8987300D02*
X5712700D01*
Y8824600D01*
X5717275D01*
X5751162Y8831341D01*
X5783083Y8844563D01*
X5811811Y8863758D01*
X5836242Y8888189D01*
X5855437Y8916917D01*
X5868659Y8948838D01*
X5875400Y8982725D01*
Y8987300D01*
D02*
G37*
G36*
X5687300D02*
X5524600D01*
Y8982725D01*
X5531341Y8948838D01*
X5544563Y8916917D01*
X5563758Y8888189D01*
X5588189Y8863758D01*
X5616917Y8844563D01*
X5648838Y8831341D01*
X5682725Y8824600D01*
X5687300D01*
Y8987300D01*
D02*
G37*
G36*
X475400D02*
X312700D01*
Y8824600D01*
X317275D01*
X351162Y8831341D01*
X383083Y8844563D01*
X411811Y8863758D01*
X436242Y8888189D01*
X455437Y8916917D01*
X468659Y8948838D01*
X475400Y8982725D01*
Y8987300D01*
D02*
G37*
G36*
X287300D02*
X124600D01*
Y8982725D01*
X131341Y8948838D01*
X144563Y8916917D01*
X163758Y8888189D01*
X188189Y8863758D01*
X216917Y8844563D01*
X248838Y8831341D01*
X282725Y8824600D01*
X287300D01*
Y8987300D01*
D02*
G37*
G36*
X2620509Y8929400D02*
X2616700D01*
Y8816700D01*
X2729400D01*
Y8820509D01*
X2720854Y8852402D01*
X2704345Y8880997D01*
X2680997Y8904345D01*
X2652403Y8920854D01*
X2620509Y8929400D01*
D02*
G37*
G36*
X776864Y8748900D02*
X774700D01*
Y8648701D01*
X874900D01*
Y8650864D01*
X867206Y8679578D01*
X852342Y8705322D01*
X831322Y8726342D01*
X805578Y8741206D01*
X776864Y8748900D01*
D02*
G37*
G36*
X749300D02*
X747136D01*
X718422Y8741206D01*
X692678Y8726342D01*
X671658Y8705322D01*
X656794Y8679578D01*
X649100Y8650864D01*
Y8648701D01*
X749300D01*
Y8748900D01*
D02*
G37*
G36*
X1030864D02*
X1001136D01*
X972422Y8741206D01*
X946678Y8726342D01*
X925658Y8705322D01*
X910794Y8679578D01*
X903100Y8650864D01*
Y8621136D01*
X910794Y8592422D01*
X925658Y8566678D01*
X946678Y8545658D01*
X972422Y8530794D01*
X1001136Y8523100D01*
X1030864D01*
X1059578Y8530794D01*
X1085322Y8545658D01*
X1106342Y8566678D01*
X1121206Y8592422D01*
X1128900Y8621136D01*
Y8650864D01*
X1121206Y8679578D01*
X1106342Y8705322D01*
X1085322Y8726342D01*
X1059578Y8741206D01*
X1030864Y8748900D01*
D02*
G37*
G36*
X874900Y8623301D02*
X774700D01*
Y8523100D01*
X776864D01*
X805578Y8530794D01*
X831322Y8545658D01*
X852342Y8566678D01*
X867206Y8592422D01*
X874900Y8621136D01*
Y8623301D01*
D02*
G37*
G36*
X749300D02*
X649100D01*
Y8621136D01*
X656794Y8592422D01*
X671658Y8566678D01*
X692678Y8545658D01*
X718422Y8530794D01*
X747136Y8523100D01*
X749300D01*
Y8623301D01*
D02*
G37*
G36*
X4241901Y8630400D02*
X4218098D01*
X4195107Y8624239D01*
X4174493Y8612338D01*
X4157662Y8595507D01*
X4145761Y8574893D01*
X4139600Y8551901D01*
Y8528099D01*
X4145761Y8505107D01*
X4157662Y8484493D01*
X4174493Y8467662D01*
X4195107Y8455761D01*
X4218098Y8449600D01*
X4241901D01*
X4264893Y8455761D01*
X4285507Y8467662D01*
X4302338Y8484493D01*
X4310603Y8498809D01*
X5094100D01*
Y8494136D01*
X5101794Y8465422D01*
X5116658Y8439678D01*
X5137678Y8418658D01*
X5163422Y8403794D01*
X5192136Y8396100D01*
X5221864D01*
X5250578Y8403794D01*
X5276322Y8418658D01*
X5297342Y8439678D01*
X5312206Y8465422D01*
X5319900Y8494136D01*
Y8523864D01*
X5312206Y8552578D01*
X5297342Y8578322D01*
X5276322Y8599342D01*
X5250578Y8614206D01*
X5221864Y8621900D01*
X5192136D01*
X5163422Y8614206D01*
X5137678Y8599342D01*
X5119095Y8580760D01*
X5116926Y8581191D01*
X4310603D01*
X4302338Y8595507D01*
X4285507Y8612338D01*
X4264893Y8624239D01*
X4241901Y8630400D01*
D02*
G37*
G36*
X2961901Y8790400D02*
X2938099D01*
X2915107Y8784239D01*
X2894493Y8772338D01*
X2877662Y8755507D01*
X2865761Y8734893D01*
X2859600Y8711902D01*
Y8688099D01*
X2865761Y8665107D01*
X2877662Y8644493D01*
X2894493Y8627662D01*
X2908809Y8619397D01*
Y8505603D01*
X2894493Y8497338D01*
X2877662Y8480507D01*
X2865761Y8459893D01*
X2859600Y8436901D01*
Y8413098D01*
X2865761Y8390107D01*
X2877662Y8369493D01*
X2894493Y8352662D01*
X2915107Y8340761D01*
X2938099Y8334600D01*
X2961901D01*
X2984893Y8340761D01*
X3005507Y8352662D01*
X3022338Y8369493D01*
X3034239Y8390107D01*
X3040400Y8413098D01*
Y8436901D01*
X3034239Y8459893D01*
X3022338Y8480507D01*
X3005507Y8497338D01*
X2991191Y8505603D01*
Y8619397D01*
X3005507Y8627662D01*
X3022338Y8644493D01*
X3034239Y8665107D01*
X3040400Y8688099D01*
Y8711902D01*
X3034239Y8734893D01*
X3022338Y8755507D01*
X3005507Y8772338D01*
X2984893Y8784239D01*
X2961901Y8790400D01*
D02*
G37*
G36*
X3880000Y8951266D02*
X3853790Y8947816D01*
X3829367Y8937699D01*
X3808394Y8921606D01*
X3792301Y8900633D01*
X3782184Y8876210D01*
X3778734Y8850000D01*
Y8300000D01*
X3782184Y8273790D01*
X3792301Y8249367D01*
X3808394Y8228394D01*
X3829367Y8212301D01*
X3853790Y8202184D01*
X3880000Y8198734D01*
X3880999Y8198865D01*
X3882000Y8198733D01*
X3882002Y8198734D01*
X4820000D01*
X4846210Y8202184D01*
X4870633Y8212301D01*
X4891606Y8228394D01*
X4907699Y8249367D01*
X4917816Y8273790D01*
X4921266Y8300000D01*
X4917816Y8326210D01*
X4907699Y8350633D01*
X4891606Y8371606D01*
X4870633Y8387699D01*
X4846210Y8397816D01*
X4820000Y8401266D01*
X3981266D01*
Y8850000D01*
X3977816Y8876210D01*
X3967699Y8900633D01*
X3951606Y8921606D01*
X3930633Y8937699D01*
X3906210Y8947816D01*
X3880000Y8951266D01*
D02*
G37*
G36*
X3898509Y8025401D02*
X3865491D01*
X3833598Y8016855D01*
X3805003Y8000346D01*
X3781655Y7976999D01*
X3765146Y7948404D01*
X3761574Y7935074D01*
X3748426D01*
X3744854Y7948404D01*
X3728345Y7976999D01*
X3704997Y8000346D01*
X3676403Y8016855D01*
X3644509Y8025401D01*
X3611491D01*
X3579598Y8016855D01*
X3551003Y8000346D01*
X3527655Y7976999D01*
X3511146Y7948404D01*
X3507574Y7935074D01*
X3494426D01*
X3490854Y7948404D01*
X3474345Y7976999D01*
X3450997Y8000346D01*
X3422403Y8016855D01*
X3390509Y8025401D01*
X3357491D01*
X3325598Y8016855D01*
X3297003Y8000346D01*
X3273655Y7976999D01*
X3257146Y7948404D01*
X3253574Y7935074D01*
X3240426D01*
X3236854Y7948404D01*
X3220345Y7976999D01*
X3196997Y8000346D01*
X3168403Y8016855D01*
X3136509Y8025401D01*
X3103491D01*
X3071598Y8016855D01*
X3043003Y8000346D01*
X3019655Y7976999D01*
X3003146Y7948404D01*
X2999574Y7935074D01*
X2986426D01*
X2982854Y7948404D01*
X2966345Y7976999D01*
X2942997Y8000346D01*
X2914403Y8016855D01*
X2882509Y8025401D01*
X2849491D01*
X2817598Y8016855D01*
X2789003Y8000346D01*
X2765655Y7976999D01*
X2749146Y7948404D01*
X2745574Y7935074D01*
X2732426D01*
X2728854Y7948404D01*
X2712345Y7976999D01*
X2688997Y8000346D01*
X2660403Y8016855D01*
X2628509Y8025401D01*
X2595491D01*
X2563598Y8016855D01*
X2535003Y8000346D01*
X2511655Y7976999D01*
X2495146Y7948404D01*
X2491574Y7935074D01*
X2478426D01*
X2474854Y7948404D01*
X2458345Y7976999D01*
X2434997Y8000346D01*
X2406403Y8016855D01*
X2374509Y8025401D01*
X2341491D01*
X2309598Y8016855D01*
X2281003Y8000346D01*
X2257655Y7976999D01*
X2241146Y7948404D01*
X2237574Y7935074D01*
X2224426D01*
X2220854Y7948404D01*
X2204345Y7976999D01*
X2180997Y8000346D01*
X2152403Y8016855D01*
X2120509Y8025401D01*
X2087491D01*
X2055598Y8016855D01*
X2027003Y8000346D01*
X2003655Y7976999D01*
X1987146Y7948404D01*
X1983574Y7935074D01*
X1970426D01*
X1966854Y7948404D01*
X1950345Y7976999D01*
X1926997Y8000346D01*
X1898403Y8016855D01*
X1866509Y8025401D01*
X1833491D01*
X1801598Y8016855D01*
X1773003Y8000346D01*
X1749655Y7976999D01*
X1733146Y7948404D01*
X1724600Y7916510D01*
Y7883492D01*
X1733146Y7851599D01*
X1749655Y7823004D01*
X1773003Y7799656D01*
X1801598Y7783147D01*
X1833491Y7774601D01*
X1866509D01*
X1898403Y7783147D01*
X1926997Y7799656D01*
X1950345Y7823004D01*
X1966854Y7851599D01*
X1970426Y7864928D01*
X1983574D01*
X1987146Y7851599D01*
X2003655Y7823004D01*
X2027003Y7799656D01*
X2055598Y7783147D01*
X2087491Y7774601D01*
X2120509D01*
X2152403Y7783147D01*
X2180997Y7799656D01*
X2204345Y7823004D01*
X2220854Y7851599D01*
X2224426Y7864928D01*
X2237574D01*
X2241146Y7851599D01*
X2257655Y7823004D01*
X2281003Y7799656D01*
X2309598Y7783147D01*
X2341491Y7774601D01*
X2374509D01*
X2406403Y7783147D01*
X2434997Y7799656D01*
X2458345Y7823004D01*
X2474854Y7851599D01*
X2478426Y7864928D01*
X2491574D01*
X2495146Y7851599D01*
X2511655Y7823004D01*
X2535003Y7799656D01*
X2563598Y7783147D01*
X2595491Y7774601D01*
X2628509D01*
X2660403Y7783147D01*
X2688997Y7799656D01*
X2712345Y7823004D01*
X2728854Y7851599D01*
X2732426Y7864928D01*
X2745574D01*
X2749146Y7851599D01*
X2765655Y7823004D01*
X2789003Y7799656D01*
X2817598Y7783147D01*
X2849491Y7774601D01*
X2882509D01*
X2914403Y7783147D01*
X2942997Y7799656D01*
X2966345Y7823004D01*
X2982854Y7851599D01*
X2986426Y7864928D01*
X2999574D01*
X3003146Y7851599D01*
X3019655Y7823004D01*
X3043003Y7799656D01*
X3071598Y7783147D01*
X3103491Y7774601D01*
X3136509D01*
X3168403Y7783147D01*
X3196997Y7799656D01*
X3220345Y7823004D01*
X3236854Y7851599D01*
X3240426Y7864928D01*
X3253574D01*
X3257146Y7851599D01*
X3273655Y7823004D01*
X3297003Y7799656D01*
X3325598Y7783147D01*
X3357491Y7774601D01*
X3390509D01*
X3422403Y7783147D01*
X3450997Y7799656D01*
X3474345Y7823004D01*
X3490854Y7851599D01*
X3494426Y7864928D01*
X3507574D01*
X3511146Y7851599D01*
X3527655Y7823004D01*
X3551003Y7799656D01*
X3579598Y7783147D01*
X3611491Y7774601D01*
X3644509D01*
X3676403Y7783147D01*
X3704997Y7799656D01*
X3728345Y7823004D01*
X3744854Y7851599D01*
X3748426Y7864928D01*
X3761574D01*
X3765146Y7851599D01*
X3781655Y7823004D01*
X3805003Y7799656D01*
X3833598Y7783147D01*
X3865491Y7774601D01*
X3898509D01*
X3930403Y7783147D01*
X3958997Y7799656D01*
X3982345Y7823004D01*
X3998854Y7851599D01*
X4002426Y7864928D01*
X4015574D01*
X4019146Y7851599D01*
X4033849Y7826133D01*
X4107716Y7900000D01*
X4033848Y7973868D01*
X4019146Y7948404D01*
X4015574Y7935074D01*
X4002426D01*
X3998854Y7948404D01*
X3982345Y7976999D01*
X3958997Y8000346D01*
X3930403Y8016855D01*
X3898509Y8025401D01*
D02*
G37*
G36*
X4152509D02*
X4119491D01*
X4087598Y8016855D01*
X4062132Y8002153D01*
X4136001Y7928285D01*
X4209869Y8002153D01*
X4184403Y8016855D01*
X4152509Y8025401D01*
D02*
G37*
G36*
X4238153Y7973868D02*
X4164285Y7900000D01*
X4238152Y7826133D01*
X4252854Y7851599D01*
X4261400Y7883492D01*
Y7916510D01*
X4252854Y7948404D01*
X4238153Y7973868D01*
D02*
G37*
G36*
X4136001Y7871716D02*
X4062134Y7797849D01*
X4087598Y7783147D01*
X4119491Y7774601D01*
X4152509D01*
X4184403Y7783147D01*
X4209867Y7797849D01*
X4136001Y7871716D01*
D02*
G37*
G36*
X2361902Y7190400D02*
X2338099D01*
X2315107Y7184239D01*
X2294493Y7172338D01*
X2277662Y7155507D01*
X2265761Y7134893D01*
X2259600Y7111901D01*
Y7088099D01*
X2265761Y7065107D01*
X2277662Y7044493D01*
X2294493Y7027662D01*
X2303711Y7022341D01*
Y6877660D01*
X2294493Y6872338D01*
X2277662Y6855507D01*
X2265761Y6834893D01*
X2259600Y6811902D01*
Y6788099D01*
X2265761Y6765107D01*
X2277662Y6744493D01*
X2294493Y6727662D01*
X2315107Y6715761D01*
X2338099Y6709600D01*
X2361902D01*
X2384893Y6715761D01*
X2405507Y6727662D01*
X2422338Y6744493D01*
X2434239Y6765107D01*
X2440400Y6788099D01*
Y6811902D01*
X2434239Y6834893D01*
X2422338Y6855507D01*
X2405507Y6872338D01*
X2396290Y6877660D01*
Y7022341D01*
X2405507Y7027662D01*
X2422338Y7044493D01*
X2434239Y7065107D01*
X2440400Y7088099D01*
Y7111901D01*
X2434239Y7134893D01*
X2422338Y7155507D01*
X2405507Y7172338D01*
X2384893Y7184239D01*
X2361902Y7190400D01*
D02*
G37*
G36*
X5717275Y5875400D02*
X5712700D01*
Y5712700D01*
X5875400D01*
Y5717275D01*
X5868659Y5751162D01*
X5855437Y5783083D01*
X5836242Y5811811D01*
X5811811Y5836242D01*
X5783083Y5855437D01*
X5751162Y5868659D01*
X5717275Y5875400D01*
D02*
G37*
G36*
X5687300D02*
X5682725D01*
X5648838Y5868659D01*
X5616917Y5855437D01*
X5588189Y5836242D01*
X5563758Y5811811D01*
X5544563Y5783083D01*
X5531341Y5751162D01*
X5524600Y5717275D01*
Y5712700D01*
X5687300D01*
Y5875400D01*
D02*
G37*
G36*
X317275D02*
X312700D01*
Y5712700D01*
X475400D01*
Y5717275D01*
X468659Y5751162D01*
X455437Y5783083D01*
X436242Y5811811D01*
X411811Y5836242D01*
X383083Y5855437D01*
X351162Y5868659D01*
X317275Y5875400D01*
D02*
G37*
G36*
X287300D02*
X282725D01*
X248838Y5868659D01*
X216917Y5855437D01*
X188189Y5836242D01*
X163758Y5811811D01*
X144563Y5783083D01*
X131341Y5751162D01*
X124600Y5717275D01*
Y5712700D01*
X287300D01*
Y5875400D01*
D02*
G37*
G36*
X5875400Y5687300D02*
X5712700D01*
Y5524600D01*
X5717275D01*
X5751162Y5531341D01*
X5783083Y5544563D01*
X5811811Y5563758D01*
X5836242Y5588189D01*
X5855437Y5616917D01*
X5868659Y5648838D01*
X5875400Y5682725D01*
Y5687300D01*
D02*
G37*
G36*
X5687300D02*
X5524600D01*
Y5682725D01*
X5531341Y5648838D01*
X5544563Y5616917D01*
X5563758Y5588189D01*
X5588189Y5563758D01*
X5616917Y5544563D01*
X5648838Y5531341D01*
X5682725Y5524600D01*
X5687300D01*
Y5687300D01*
D02*
G37*
G36*
X475400D02*
X312700D01*
Y5524600D01*
X317275D01*
X351162Y5531341D01*
X383083Y5544563D01*
X411811Y5563758D01*
X436242Y5588189D01*
X455437Y5616917D01*
X468659Y5648838D01*
X475400Y5682725D01*
Y5687300D01*
D02*
G37*
G36*
X287300D02*
X124600D01*
Y5682725D01*
X131341Y5648838D01*
X144563Y5616917D01*
X163758Y5588189D01*
X188189Y5563758D01*
X216917Y5544563D01*
X248838Y5531341D01*
X282725Y5524600D01*
X287300D01*
Y5687300D01*
D02*
G37*
G36*
X4152509Y2625401D02*
X4119491D01*
X4087598Y2616855D01*
X4059003Y2600346D01*
X4035655Y2576998D01*
X4019146Y2548404D01*
X4015574Y2535074D01*
X4002426D01*
X3998854Y2548404D01*
X3982345Y2576998D01*
X3958997Y2600346D01*
X3930403Y2616855D01*
X3898509Y2625401D01*
X3865491D01*
X3833598Y2616855D01*
X3805003Y2600346D01*
X3781655Y2576998D01*
X3765146Y2548404D01*
X3761574Y2535074D01*
X3748426D01*
X3744854Y2548404D01*
X3728345Y2576998D01*
X3704997Y2600346D01*
X3676403Y2616855D01*
X3644509Y2625401D01*
X3611491D01*
X3579598Y2616855D01*
X3551003Y2600346D01*
X3527655Y2576998D01*
X3511146Y2548404D01*
X3507574Y2535074D01*
X3494426D01*
X3490854Y2548404D01*
X3474345Y2576998D01*
X3450997Y2600346D01*
X3422403Y2616855D01*
X3390509Y2625401D01*
X3357491D01*
X3325598Y2616855D01*
X3297003Y2600346D01*
X3273655Y2576998D01*
X3257146Y2548404D01*
X3253574Y2535074D01*
X3240426D01*
X3236854Y2548404D01*
X3220345Y2576998D01*
X3196997Y2600346D01*
X3168403Y2616855D01*
X3136509Y2625401D01*
X3103491D01*
X3071598Y2616855D01*
X3043003Y2600346D01*
X3019655Y2576998D01*
X3003146Y2548404D01*
X2999574Y2535074D01*
X2986426D01*
X2982854Y2548404D01*
X2966345Y2576998D01*
X2942997Y2600346D01*
X2914403Y2616855D01*
X2882509Y2625401D01*
X2849491D01*
X2817598Y2616855D01*
X2789003Y2600346D01*
X2765655Y2576998D01*
X2749146Y2548404D01*
X2745574Y2535074D01*
X2732426D01*
X2728854Y2548404D01*
X2712345Y2576998D01*
X2688997Y2600346D01*
X2660403Y2616855D01*
X2628509Y2625401D01*
X2595491D01*
X2563598Y2616855D01*
X2535003Y2600346D01*
X2511655Y2576998D01*
X2495146Y2548404D01*
X2491574Y2535074D01*
X2478426D01*
X2474854Y2548404D01*
X2458345Y2576998D01*
X2434997Y2600346D01*
X2406403Y2616855D01*
X2374509Y2625401D01*
X2341491D01*
X2309598Y2616855D01*
X2281003Y2600346D01*
X2257655Y2576998D01*
X2241146Y2548404D01*
X2237574Y2535074D01*
X2224426D01*
X2220854Y2548404D01*
X2204345Y2576998D01*
X2180997Y2600346D01*
X2152403Y2616855D01*
X2120509Y2625401D01*
X2087491D01*
X2055598Y2616855D01*
X2027003Y2600346D01*
X2003655Y2576998D01*
X1987146Y2548404D01*
X1983574Y2535074D01*
X1970426D01*
X1966854Y2548404D01*
X1950345Y2576998D01*
X1926997Y2600346D01*
X1898403Y2616855D01*
X1866509Y2625401D01*
X1833491D01*
X1801598Y2616855D01*
X1773003Y2600346D01*
X1749655Y2576998D01*
X1733146Y2548404D01*
X1724600Y2516510D01*
Y2483492D01*
X1733146Y2451599D01*
X1749655Y2423004D01*
X1773003Y2399656D01*
X1801598Y2383147D01*
X1833491Y2374601D01*
X1866509D01*
X1898403Y2383147D01*
X1926997Y2399656D01*
X1950345Y2423004D01*
X1966854Y2451599D01*
X1970426Y2464928D01*
X1983574D01*
X1987146Y2451599D01*
X2003655Y2423004D01*
X2027003Y2399656D01*
X2055598Y2383147D01*
X2087491Y2374601D01*
X2120509D01*
X2152403Y2383147D01*
X2180997Y2399656D01*
X2204345Y2423004D01*
X2220854Y2451599D01*
X2224426Y2464928D01*
X2237574D01*
X2241146Y2451599D01*
X2257655Y2423004D01*
X2281003Y2399656D01*
X2309598Y2383147D01*
X2341491Y2374601D01*
X2374509D01*
X2406403Y2383147D01*
X2434997Y2399656D01*
X2458345Y2423004D01*
X2474854Y2451599D01*
X2478426Y2464928D01*
X2491574D01*
X2495146Y2451599D01*
X2511655Y2423004D01*
X2535003Y2399656D01*
X2563598Y2383147D01*
X2595491Y2374601D01*
X2628509D01*
X2660403Y2383147D01*
X2688997Y2399656D01*
X2712345Y2423004D01*
X2728854Y2451599D01*
X2732426Y2464928D01*
X2745574D01*
X2749146Y2451599D01*
X2765655Y2423004D01*
X2789003Y2399656D01*
X2817598Y2383147D01*
X2849491Y2374601D01*
X2882509D01*
X2914403Y2383147D01*
X2942997Y2399656D01*
X2966345Y2423004D01*
X2982854Y2451599D01*
X2986426Y2464928D01*
X2999574D01*
X3003146Y2451599D01*
X3019655Y2423004D01*
X3043003Y2399656D01*
X3071598Y2383147D01*
X3103491Y2374601D01*
X3136509D01*
X3168403Y2383147D01*
X3196997Y2399656D01*
X3220345Y2423004D01*
X3236854Y2451599D01*
X3240426Y2464928D01*
X3253574D01*
X3257146Y2451599D01*
X3273655Y2423004D01*
X3297003Y2399656D01*
X3325598Y2383147D01*
X3357491Y2374601D01*
X3390509D01*
X3422403Y2383147D01*
X3450997Y2399656D01*
X3474345Y2423004D01*
X3490854Y2451599D01*
X3494426Y2464928D01*
X3507574D01*
X3511146Y2451599D01*
X3527655Y2423004D01*
X3551003Y2399656D01*
X3579598Y2383147D01*
X3611491Y2374601D01*
X3644509D01*
X3676403Y2383147D01*
X3704997Y2399656D01*
X3728345Y2423004D01*
X3744854Y2451599D01*
X3748426Y2464928D01*
X3761574D01*
X3765146Y2451599D01*
X3781655Y2423004D01*
X3805003Y2399656D01*
X3833598Y2383147D01*
X3865491Y2374601D01*
X3898509D01*
X3930403Y2383147D01*
X3958997Y2399656D01*
X3982345Y2423004D01*
X3998854Y2451599D01*
X4002426Y2464928D01*
X4015574D01*
X4019146Y2451599D01*
X4035655Y2423004D01*
X4059003Y2399656D01*
X4087598Y2383147D01*
X4119491Y2374601D01*
X4152509D01*
X4184403Y2383147D01*
X4212997Y2399656D01*
X4236345Y2423004D01*
X4252854Y2451599D01*
X4261400Y2483492D01*
Y2516510D01*
X4252854Y2548404D01*
X4236345Y2576998D01*
X4212997Y2600346D01*
X4184403Y2616855D01*
X4152509Y2625401D01*
D02*
G37*
G36*
X3268864Y1812900D02*
X3239137D01*
X3210422Y1805206D01*
X3189283Y1793001D01*
X3254000Y1728284D01*
X3318717Y1793001D01*
X3297578Y1805206D01*
X3268864Y1812900D01*
D02*
G37*
G36*
X3160999Y1764717D02*
X3148794Y1743578D01*
X3141100Y1714863D01*
Y1685136D01*
X3148794Y1656422D01*
X3160999Y1635283D01*
X3225716Y1700000D01*
X3160999Y1764717D01*
D02*
G37*
G36*
X3347001Y1764717D02*
X3282285Y1700000D01*
X3347001Y1635283D01*
X3359206Y1656422D01*
X3366900Y1685136D01*
Y1714863D01*
X3359206Y1743578D01*
X3347001Y1764717D01*
D02*
G37*
G36*
X3254000Y1671715D02*
X3189283Y1606999D01*
X3210422Y1594794D01*
X3239137Y1587100D01*
X3268864D01*
X3297578Y1594794D01*
X3318717Y1606999D01*
X3254000Y1671715D01*
D02*
G37*
G36*
X2760864Y1812900D02*
X2731137D01*
X2702422Y1805206D01*
X2676678Y1790342D01*
X2655658Y1769322D01*
X2640794Y1743578D01*
X2633100Y1714863D01*
Y1685136D01*
X2640794Y1656422D01*
X2655658Y1630678D01*
X2676678Y1609657D01*
X2702422Y1594794D01*
X2731137Y1587100D01*
X2760864D01*
X2789578Y1594794D01*
X2815322Y1609657D01*
X2836343Y1630678D01*
X2851206Y1656422D01*
X2858900Y1685136D01*
Y1714863D01*
X2851206Y1743578D01*
X2836343Y1769322D01*
X2815322Y1790342D01*
X2789578Y1805206D01*
X2760864Y1812900D01*
D02*
G37*
G36*
X3410864Y1162900D02*
X3381136D01*
X3352422Y1155206D01*
X3331283Y1143001D01*
X3396000Y1078284D01*
X3460717Y1143001D01*
X3439578Y1155206D01*
X3410864Y1162900D01*
D02*
G37*
G36*
X2618863D02*
X2589136D01*
X2560422Y1155206D01*
X2539282Y1143001D01*
X2603999Y1078284D01*
X2668716Y1143002D01*
X2647577Y1155206D01*
X2618863Y1162900D01*
D02*
G37*
G36*
X2510998Y1114716D02*
X2498794Y1093578D01*
X2491100Y1064864D01*
Y1035136D01*
X2498794Y1006422D01*
X2510998Y985283D01*
X2575715Y1050000D01*
X2510998Y1114716D01*
D02*
G37*
G36*
X3489001Y1114717D02*
X3424284Y1050000D01*
X3489001Y985283D01*
X3501206Y1006422D01*
X3508900Y1035136D01*
Y1064864D01*
X3501206Y1093578D01*
X3489001Y1114717D01*
D02*
G37*
G36*
X3302999D02*
X3290794Y1093578D01*
X3283100Y1064864D01*
Y1035136D01*
X3290794Y1006422D01*
X3302999Y985283D01*
X3367716Y1050000D01*
X3302999Y1114717D01*
D02*
G37*
G36*
X2697001Y1114717D02*
X2632284Y1050000D01*
X2697001Y985283D01*
X2709205Y1006422D01*
X2716900Y1035136D01*
Y1064864D01*
X2709205Y1093578D01*
X2697001Y1114717D01*
D02*
G37*
G36*
X3918864Y1162900D02*
X3889136D01*
X3860422Y1155206D01*
X3834678Y1140342D01*
X3813658Y1119322D01*
X3798794Y1093578D01*
X3791100Y1064864D01*
Y1035136D01*
X3798794Y1006422D01*
X3813658Y980678D01*
X3834678Y959657D01*
X3860422Y944794D01*
X3889136Y937100D01*
X3918864D01*
X3947578Y944794D01*
X3973322Y959657D01*
X3994343Y980678D01*
X4009206Y1006422D01*
X4016900Y1035136D01*
Y1064864D01*
X4009206Y1093578D01*
X3994343Y1119322D01*
X3973322Y1140342D01*
X3947578Y1155206D01*
X3918864Y1162900D01*
D02*
G37*
G36*
X3396000Y1021716D02*
X3331283Y956999D01*
X3352422Y944794D01*
X3381136Y937100D01*
X3410864D01*
X3439578Y944794D01*
X3460717Y956999D01*
X3396000Y1021716D01*
D02*
G37*
G36*
X2603999D02*
X2539282Y956999D01*
X2560422Y944794D01*
X2589136Y937100D01*
X2618863D01*
X2647577Y944794D01*
X2668716Y956998D01*
X2603999Y1021716D01*
D02*
G37*
G36*
X2110863Y1162900D02*
X2081136D01*
X2052422Y1155206D01*
X2026677Y1140342D01*
X2005657Y1119322D01*
X1990794Y1093578D01*
X1983100Y1064864D01*
Y1035136D01*
X1990794Y1006422D01*
X2005657Y980678D01*
X2026677Y959657D01*
X2052422Y944794D01*
X2081136Y937100D01*
X2110863D01*
X2139577Y944794D01*
X2165322Y959657D01*
X2186342Y980678D01*
X2201205Y1006422D01*
X2208900Y1035136D01*
Y1064864D01*
X2201205Y1093578D01*
X2186342Y1119322D01*
X2165322Y1140342D01*
X2139577Y1155206D01*
X2110863Y1162900D01*
D02*
G37*
G36*
X5716509Y825400D02*
X5683491D01*
X5651598Y816854D01*
X5623003Y800345D01*
X5599655Y776997D01*
X5583146Y748403D01*
X5574600Y716509D01*
Y683491D01*
X5583146Y651598D01*
X5599655Y623003D01*
X5623003Y599655D01*
X5651598Y583146D01*
X5683491Y574600D01*
X5716509D01*
X5748403Y583146D01*
X5776997Y599655D01*
X5800345Y623003D01*
X5816854Y651598D01*
X5825400Y683491D01*
Y716509D01*
X5816854Y748403D01*
X5800345Y776997D01*
X5776997Y800345D01*
X5748403Y816854D01*
X5716509Y825400D01*
D02*
G37*
G36*
X3258864Y520900D02*
X3229137D01*
X3200422Y513206D01*
X3179283Y501001D01*
X3244000Y436284D01*
X3308717Y501001D01*
X3287578Y513206D01*
X3258864Y520900D01*
D02*
G37*
G36*
X3150999Y472717D02*
X3138794Y451578D01*
X3131100Y422864D01*
Y393136D01*
X3138794Y364422D01*
X3150999Y343283D01*
X3215716Y408000D01*
X3150999Y472717D01*
D02*
G37*
G36*
X3337001Y472717D02*
X3272285Y408000D01*
X3337001Y343283D01*
X3349206Y364422D01*
X3356900Y393136D01*
Y422864D01*
X3349206Y451578D01*
X3337001Y472717D01*
D02*
G37*
G36*
X5717275Y475400D02*
X5712700D01*
Y312700D01*
X5875400D01*
Y317275D01*
X5868659Y351162D01*
X5855437Y383083D01*
X5836242Y411811D01*
X5811811Y436242D01*
X5783083Y455437D01*
X5751162Y468659D01*
X5717275Y475400D01*
D02*
G37*
G36*
X5687300D02*
X5682725D01*
X5648838Y468659D01*
X5616917Y455437D01*
X5588189Y436242D01*
X5563758Y411811D01*
X5544563Y383083D01*
X5531341Y351162D01*
X5524600Y317275D01*
Y312700D01*
X5687300D01*
Y475400D01*
D02*
G37*
G36*
X317275D02*
X312700D01*
Y312700D01*
X475400D01*
Y317275D01*
X468659Y351162D01*
X455437Y383083D01*
X436242Y411811D01*
X411811Y436242D01*
X383083Y455437D01*
X351162Y468659D01*
X317275Y475400D01*
D02*
G37*
G36*
X287300D02*
X282725D01*
X248838Y468659D01*
X216917Y455437D01*
X188189Y436242D01*
X163758Y411811D01*
X144563Y383083D01*
X131341Y351162D01*
X124600Y317275D01*
Y312700D01*
X287300D01*
Y475400D01*
D02*
G37*
G36*
X3244000Y379716D02*
X3179283Y314999D01*
X3200422Y302794D01*
X3229137Y295100D01*
X3258864D01*
X3287578Y302794D01*
X3308717Y314999D01*
X3244000Y379716D01*
D02*
G37*
G36*
X2750864Y520900D02*
X2721137D01*
X2692422Y513206D01*
X2666678Y498342D01*
X2645658Y477322D01*
X2630794Y451578D01*
X2623100Y422864D01*
Y393136D01*
X2630794Y364422D01*
X2645658Y338678D01*
X2666678Y317657D01*
X2692422Y302794D01*
X2721137Y295100D01*
X2750864D01*
X2779578Y302794D01*
X2805322Y317657D01*
X2826343Y338678D01*
X2841206Y364422D01*
X2848900Y393136D01*
Y422864D01*
X2841206Y451578D01*
X2826343Y477322D01*
X2805322Y498342D01*
X2779578Y513206D01*
X2750864Y520900D01*
D02*
G37*
G36*
X5875400Y287300D02*
X5712700D01*
Y124600D01*
X5717275D01*
X5751162Y131341D01*
X5783083Y144563D01*
X5811811Y163758D01*
X5836242Y188189D01*
X5855437Y216917D01*
X5868659Y248838D01*
X5875400Y282725D01*
Y287300D01*
D02*
G37*
G36*
X5687300D02*
X5524600D01*
Y282725D01*
X5531341Y248838D01*
X5544563Y216917D01*
X5563758Y188189D01*
X5588189Y163758D01*
X5616917Y144563D01*
X5648838Y131341D01*
X5682725Y124600D01*
X5687300D01*
Y287300D01*
D02*
G37*
G36*
X475400D02*
X312700D01*
Y124600D01*
X317275D01*
X351162Y131341D01*
X383083Y144563D01*
X411811Y163758D01*
X436242Y188189D01*
X455437Y216917D01*
X468659Y248838D01*
X475400Y282725D01*
Y287300D01*
D02*
G37*
G36*
X287300D02*
X124600D01*
Y282725D01*
X131341Y248838D01*
X144563Y216917D01*
X163758Y188189D01*
X188189Y163758D01*
X216917Y144563D01*
X248838Y131341D01*
X282725Y124600D01*
X287300D01*
Y287300D01*
D02*
G37*
%LPD*%
D23*
X2950000Y8425000D02*
Y8700000D01*
X5116926Y8540000D02*
X5120182Y8536744D01*
X5179256D01*
X4230000Y8540000D02*
X5116926D01*
X5179256Y8536744D02*
X5207000Y8509000D01*
D24*
X3881000Y8301000D02*
X3882000Y8300000D01*
X4820000D01*
X3880000D02*
Y8850000D01*
D25*
X2350000Y6800000D02*
Y7100000D01*
D26*
X5700000Y700000D02*
D03*
X200000Y9600000D02*
D03*
D27*
X2604000Y1050000D02*
D03*
X2096000D02*
D03*
X762000Y8636000D02*
D03*
X1016000D02*
D03*
X3244000Y408000D02*
D03*
X2736000D02*
D03*
X3254000Y1700000D02*
D03*
X2746000D02*
D03*
X5207000Y8509000D02*
D03*
Y9017000D02*
D03*
X3904000Y1050000D02*
D03*
X3396000D02*
D03*
D28*
X5700000Y5700000D02*
D03*
X300000D02*
D03*
X5700000Y9000000D02*
D03*
Y300000D02*
D03*
X300000D02*
D03*
Y9000000D02*
D03*
D29*
X2866000Y2500001D02*
D03*
X2612000D02*
D03*
X2358000D02*
D03*
X2104000D02*
D03*
X1850000D02*
D03*
X4136000D02*
D03*
X3882000D02*
D03*
X3628000D02*
D03*
X3374000D02*
D03*
X3120000D02*
D03*
X2866000Y7900001D02*
D03*
X2612000D02*
D03*
X2358000D02*
D03*
X2104000D02*
D03*
X1850000D02*
D03*
X4136000D02*
D03*
X3882000D02*
D03*
X3628000D02*
D03*
X3374000D02*
D03*
X3120000D02*
D03*
X2604000Y8804000D02*
D03*
Y8550000D02*
D03*
X2350000Y8804000D02*
D03*
Y8550000D02*
D03*
X2096000Y8804000D02*
D03*
Y8550000D02*
D03*
X5461000Y9652000D02*
D03*
X4953000D02*
D03*
X3937000D02*
D03*
X4445000D02*
D03*
D30*
X2150000Y9496000D02*
D03*
Y9750000D02*
D03*
D31*
X3432000Y9738000D02*
D03*
X2568000D02*
D03*
Y9358000D02*
D03*
X3432000D02*
D03*
D32*
X650000Y9500000D02*
D03*
X1100000D02*
D03*
X1550000D02*
D03*
D33*
X1960000Y6950000D02*
D03*
X2950000Y8700000D02*
D03*
X2990000Y6110000D02*
D03*
X4230000Y8540000D02*
D03*
X4820000Y8300000D02*
D03*
X3880000D02*
D03*
X4300000Y5880000D02*
D03*
X4500000Y7020000D02*
D03*
X4850001Y6550001D02*
D03*
X650000Y1650001D02*
D03*
Y3050001D02*
D03*
Y2350001D02*
D03*
Y3750001D02*
D03*
Y4450001D02*
D03*
Y5150001D02*
D03*
X1350001Y1650001D02*
D03*
X1350000Y4800000D02*
D03*
X1100000Y2650000D02*
D03*
Y3400000D02*
D03*
Y4100000D02*
D03*
X2750001Y3050001D02*
D03*
Y3750001D02*
D03*
X2050001Y3050001D02*
D03*
Y3750001D02*
D03*
Y4450001D02*
D03*
X3443683Y3743683D02*
D03*
X4150001Y3050001D02*
D03*
Y1650001D02*
D03*
Y3750001D02*
D03*
X1500000Y5500000D02*
D03*
X3000000Y1050000D02*
D03*
X5600000Y8650000D02*
D03*
Y7950000D02*
D03*
Y7250000D02*
D03*
Y6550000D02*
D03*
Y5150000D02*
D03*
Y4450000D02*
D03*
Y3750000D02*
D03*
Y3050000D02*
D03*
Y2350000D02*
D03*
Y1650000D02*
D03*
Y950000D02*
D03*
X4850001Y9350002D02*
D03*
Y5150001D02*
D03*
Y4450001D02*
D03*
Y3750001D02*
D03*
Y950000D02*
D03*
Y250000D02*
D03*
X4150001Y7250002D02*
D03*
Y5150001D02*
D03*
Y4450001D02*
D03*
Y950000D02*
D03*
Y250000D02*
D03*
X3450001Y4450001D02*
D03*
Y3050001D02*
D03*
Y250000D02*
D03*
X2050001D02*
D03*
X1350001Y7950002D02*
D03*
Y7250002D02*
D03*
Y6550001D02*
D03*
Y950000D02*
D03*
Y250000D02*
D03*
X650000Y7950002D02*
D03*
Y7250002D02*
D03*
Y6550001D02*
D03*
Y5850001D02*
D03*
Y250000D02*
D03*
X3880000Y8850000D02*
D03*
X2950000Y8425000D02*
D03*
X2350000Y6800000D02*
D03*
Y7100000D02*
D03*
%TF.MD5,a195b4e565fbd3a12ddf7f7b5858819c*%
M02*
